<?xml version="1.0" encoding="UTF-8"?>
<svg xmlns="http://www.w3.org/2000/svg" xmlns:xlink="http://www.w3.org/1999/xlink" viewBox="0 0 50 50" width="50px" height="50px">
<g id="thingiverse">
<path style=" stroke:none;fill-rule:nonzero;fill:rgb(27.450982%,53.725493%,96.078432%);fill-opacity:1;" d="M 25 50 C 11.191406 50 0 38.808594 0 25 C 0 11.191406 11.191406 0 25 0 C 38.808594 0 50 11.191406 50 25 C 50 38.808594 38.808594 50 25 50 Z M 25 50 "/>
<path style=" stroke:none;fill-rule:nonzero;fill:rgb(100%,100%,100%);fill-opacity:1;" d="M 25 6.601562 C 14.847656 6.601562 6.601562 14.847656 6.601562 25 C 6.601562 35.152344 14.847656 43.398438 25 43.398438 C 35.152344 43.398438 43.398438 35.152344 43.398438 25 C 43.398438 14.847656 35.152344 6.601562 25 6.601562 Z M 25 8.199219 C 34.289062 8.199219 41.800781 15.710938 41.800781 25 C 41.800781 34.289062 34.289062 41.800781 25 41.800781 C 15.710938 41.800781 8.199219 34.289062 8.199219 25 C 8.199219 15.710938 15.710938 8.199219 25 8.199219 Z M 17.800781 17 L 17.800781 21.800781 L 22.601562 21.800781 L 22.601562 35.398438 L 27.398438 35.398438 L 27.398438 21.800781 L 32.199219 21.800781 L 32.199219 17 Z M 17.800781 17 "/>
</g>
</svg>
