<svg xmlns="http://www.w3.org/2000/svg" xmlns:xlink="http://www.w3.org/1999/xlink" xmlns:lucid="lucid" width="1360" height="1760"><g transform="translate(0 0)" lucid:page-tab-id="KrZP4IGVV5vAB"><path d="M0 0h1360v1760H0z" fill="#fff"/><path d="M690 977.48s0 .02.02.02h364.96s.02 0 .02-.02v-7.46s0-.02-.02-.02H690.02s-.02 0-.02.02z" stroke="#000" stroke-width=".53" fill="#fff"/><path d="M200 899.98s0 .02.02.02h959.96s.02 0 .02-.02V420.02s0-.02-.02-.02H200.02s-.02 0-.02.02z" stroke="#000" stroke-width=".53" fill="#e6e6e6"/><path d="M250 1164.98s0 .02.02.02h357.46s.02 0 .02-.02V970.02s0-.02-.02-.02H250.02s-.02 0-.02.02z" stroke="#000" stroke-width=".53" fill="#fff"/><use xlink:href="#a" transform="matrix(1,0,0,1,250,970) translate(164.666611328125 93.7104638671875)"/><use xlink:href="#b" transform="matrix(1,0,0,1,250,970) translate(129.08924804687499 113.4525146484375)"/><use xlink:href="#c" transform="matrix(1,0,0,1,250,970) translate(174.555 113.4525146484375)"/><use xlink:href="#d" transform="matrix(1,0,0,1,250,970) translate(188.384853515625 113.4525146484375)"/><path d="M200 614.98s0 .02.02.02h357.46s.02 0 .02-.02V420.02s0-.02-.02-.02H200.02s-.02 0-.02.02z" stroke="#000" stroke-width=".53" fill="#fff"/><use xlink:href="#a" transform="matrix(1,0,0,1,200,420) translate(164.666611328125 93.7104638671875)"/><use xlink:href="#b" transform="matrix(1,0,0,1,200,420) translate(129.08924804687499 113.4525146484375)"/><use xlink:href="#c" transform="matrix(1,0,0,1,200,420) translate(174.555 113.4525146484375)"/><use xlink:href="#d" transform="matrix(1,0,0,1,200,420) translate(188.384853515625 113.4525146484375)"/><path d="M615 1172.48s0 .02.02.02h9.96s.02 0 .02-.02V970.02s0-.02-.02-.02h-9.96s-.02 0-.02.02z" stroke="#000" stroke-width=".53" fill="#fff"/><use xlink:href="#e" transform="matrix(-0.000003673205103813548,-0.9999999999932537,0.9999999999932537,-0.000003673205103813548,614.9528673206455,1170.0350736379046) translate(68.3684423828125 26.5814892578125)"/><use xlink:href="#c" transform="matrix(-0.000003673205103813548,-0.9999999999932537,0.9999999999932537,-0.000003673205103813548,614.9528673206455,1170.0350736379046) translate(83.1966845703125 26.5814892578125)"/><use xlink:href="#f" transform="matrix(-0.000003673205103813548,-0.9999999999932537,0.9999999999932537,-0.000003673205103813548,614.9528673206455,1170.0350736379046) translate(97.0265380859375 26.5814892578125)"/><path d="M243.75 1184.98s0 .02.02.02h372.46s.02 0 .02-.02v-9.96s0-.02-.02-.02H243.77s-.02 0-.02.02z" stroke="#000" stroke-width=".53" fill="#fff"/><use xlink:href="#g" transform="matrix(1,0,0,1,243.75,1175) translate(152.398515625 28.5814892578125)"/><use xlink:href="#h" transform="matrix(1,0,0,1,243.75,1175) translate(177.11514648437497 28.5814892578125)"/><use xlink:href="#c" transform="matrix(1,0,0,1,243.75,1175) translate(196.8832421875 28.5814892578125)"/><use xlink:href="#i" transform="matrix(1,0,0,1,243.75,1175) translate(210.713095703125 28.5814892578125)"/><path d="M245 1172.48s0 .02-.02.02h-9.96s-.02 0-.02-.02V970.02s0-.02.02-.02h9.96s.02 0 .02.02z" stroke="#000" stroke-width=".53" fill="#fff"/><use xlink:href="#e" transform="matrix(-0.000003673205103346574,0.9999999999932537,-0.9999999999932537,-0.000003673205103346574,245.0478673203752,970.0350736392538) translate(68.3684423828125 26.5814892578125)"/><use xlink:href="#c" transform="matrix(-0.000003673205103346574,0.9999999999932537,-0.9999999999932537,-0.000003673205103346574,245.0478673203752,970.0350736392538) translate(83.1966845703125 26.5814892578125)"/><use xlink:href="#f" transform="matrix(-0.000003673205103346574,0.9999999999932537,-0.9999999999932537,-0.000003673205103346574,245.0478673203752,970.0350736392538) translate(97.0265380859375 26.5814892578125)"/><path d="M514.98 900s.02 0 .02-.02V705.02s0-.02-.02-.02H200.02s-.02 0-.02.02v194.96s0 .02.02.02z" stroke="#000" stroke-width=".53" fill="#fff"/><use xlink:href="#j" transform="matrix(0.9999999999999999,0,0,0.9999999999999999,199.88000035813852,705.1050005785294) translate(117.9681494140625 83.83943847656249)"/><use xlink:href="#k" transform="matrix(0.9999999999999999,0,0,0.9999999999999999,199.88000035813852,705.1050005785294) translate(164.4149267578125 83.83943847656249)"/><use xlink:href="#l" transform="matrix(0.9999999999999999,0,0,0.9999999999999999,199.88000035813852,705.1050005785294) translate(130.32212402343748 103.58148925781249)"/><use xlink:href="#m" transform="matrix(0.9999999999999999,0,0,0.9999999999999999,199.88000035813852,705.1050005785294) translate(175.78787597656247 103.58148925781249)"/><use xlink:href="#n" transform="matrix(0.9999999999999999,0,0,0.9999999999999999,199.88000035813852,705.1050005785294) translate(46.30554687499999 123.3235400390625)"/><use xlink:href="#o" transform="matrix(0.9999999999999999,0,0,0.9999999999999999,199.88000035813852,705.1050005785294) translate(91.771298828125 123.3235400390625)"/><use xlink:href="#p" transform="matrix(0.9999999999999999,0,0,0.9999999999999999,199.88000035813852,705.1050005785294) translate(102.63203125 123.3235400390625)"/><use xlink:href="#q" transform="matrix(0.9999999999999999,0,0,0.9999999999999999,199.88000035813852,705.1050005785294) translate(147.125439453125 123.3235400390625)"/><use xlink:href="#r" transform="matrix(0.9999999999999999,0,0,0.9999999999999999,199.88000035813852,705.1050005785294) translate(215.345771484375 123.3235400390625)"/><path d="M1159.98 900s.02 0 .02-.02V705.02s0-.02-.02-.02H845.02s-.02 0-.02.02v194.96s0 .02.02.02z" stroke="#000" stroke-width=".53" fill="#fff"/><use xlink:href="#j" transform="matrix(0.9999999999999999,0,0,0.9999999999999999,844.8800003581384,705.1050005785294) translate(117.9681494140625 83.83943847656249)"/><use xlink:href="#k" transform="matrix(0.9999999999999999,0,0,0.9999999999999999,844.8800003581384,705.1050005785294) translate(164.4149267578125 83.83943847656249)"/><use xlink:href="#l" transform="matrix(0.9999999999999999,0,0,0.9999999999999999,844.8800003581384,705.1050005785294) translate(130.32212402343748 103.58148925781249)"/><use xlink:href="#m" transform="matrix(0.9999999999999999,0,0,0.9999999999999999,844.8800003581384,705.1050005785294) translate(175.78787597656247 103.58148925781249)"/><use xlink:href="#n" transform="matrix(0.9999999999999999,0,0,0.9999999999999999,844.8800003581384,705.1050005785294) translate(46.30554687499999 123.3235400390625)"/><use xlink:href="#o" transform="matrix(0.9999999999999999,0,0,0.9999999999999999,844.8800003581384,705.1050005785294) translate(91.771298828125 123.3235400390625)"/><use xlink:href="#p" transform="matrix(0.9999999999999999,0,0,0.9999999999999999,844.8800003581384,705.1050005785294) translate(102.63203125 123.3235400390625)"/><use xlink:href="#q" transform="matrix(0.9999999999999999,0,0,0.9999999999999999,844.8800003581384,705.1050005785294) translate(147.125439453125 123.3235400390625)"/><use xlink:href="#r" transform="matrix(0.9999999999999999,0,0,0.9999999999999999,844.8800003581384,705.1050005785294) translate(215.345771484375 123.3235400390625)"/><path d="M697.5 1284.98s0 .02.02.02h7.46s.02 0 .02-.02V975.02s0-.02-.02-.02h-7.46s-.02 0-.02.02zM1047.5 1284.98s0 .02.02.02h7.46s.02 0 .02-.02V975.02s0-.02-.02-.02h-7.46s-.02 0-.02.02z" stroke="#000" stroke-width=".53" fill="#fff"/><path d="M702.52 977.5s-.02 0-.02.02v7.46s0 .02.02.02h347.46s.02 0 .02-.02v-7.46s0-.02-.02-.02zM702.02 1277.5s-.02 0-.02.02v7.46s0 .02.02.02h347.46s.02 0 .02-.02v-7.46s0-.02-.02-.02zM702.52 1037.5s-.02 0-.02.02v7.46s0 .02.02.02h347.46s.02 0 .02-.02v-7.46s0-.02-.02-.02zM702.52 1107.5s-.02 0-.02.02v7.46s0 .02.02.02h347.46s.02 0 .02-.02v-7.46s0-.02-.02-.02zM702.52 1187.5s-.02 0-.02.02v7.46s0 .02.02.02h347.46s.02 0 .02-.02v-7.46s0-.02-.02-.02zM697.5 902.24v28.85zM1055 902.24v28.85z" stroke="#000" stroke-width=".53" fill="#fff"/><path d="M876.25 920H697.5M876.25 920H1055" stroke="#000" stroke-width=".53" fill="none"/><use xlink:href="#s" transform="matrix(1,0,0,1,853.0125,909.3286939999999) translate(3.6974902343749996 17.0814892578125)"/><g stroke="#000" stroke-width=".53"><path d="M693.26 1037.5H659.4zM693.26 985H659.4z" fill="#fff"/><path d="M675.5 1011.25v26.25M675.5 1011.25V985" fill="none"/></g><use xlink:href="#t" transform="matrix(0.9999999999999999,0,0,0.9999999999999999,654.9139140963371,1000.6011690108699) translate(3.6974902343749996 17.0814892578125)"/><path d="M938.3 1040c.02 0 .03 0 .03-.02v-57.46s0-.02-.02-.02h-7.45s-.02 0-.02.02v57.46s0 .02.02.02z" stroke="#000" stroke-width=".53" fill="#fff"/><g stroke="#000" stroke-width=".53"><path d="M693.26 1045H659.4zM693.26 1107.5H659.4z" fill="#fff"/><path d="M675.5 1076.25v31.25M675.5 1076.25V1045" fill="none"/></g><use xlink:href="#u" transform="matrix(0.9999999999999999,0,0,0.9999999999999999,654.926414114703,1065.6061690108693) translate(3.6974902343749996 17.0814892578125)"/><path d="M1063.75 1114.98s0 .02.02.02h166.2c.02 0 .03 0 .03-.02v-7.46s0-.02-.02-.02h-166.2c-.02 0-.03 0-.03.02z" stroke="#000" stroke-width=".53" fill="#fff"/><g stroke="#000" stroke-width=".53"><path d="M693.26 1187.5H659.4zM693.26 1115H659.4z" fill="#fff"/><path d="M675.5 1151.25v36.25M675.5 1151.25V1115" fill="none"/></g><use xlink:href="#v" transform="matrix(0.9999999999999999,0,0,0.9999999999999999,654.9301639999153,1140.5749190108693) translate(3.6974902343749996 17.0814892578125)"/><g stroke="#000" stroke-width=".53"><path d="M692.76 1277.5H658.9zM692.76 1195h-33.34z" fill="#fff"/><path d="M675 1236.25v41.25M675 1236.25V1195" fill="none"/></g><use xlink:href="#w" transform="matrix(0.9999999999999999,0,0,0.9999999999999999,654.3951639999153,1225.5749190108693) translate(3.6974902343749996 17.0814892578125)"/><path d="M821.65 1040s.02 0 .02-.02v-57.46s0-.02-.02-.02h-7.46c-.02 0-.03 0-.03.02v57.46s0 .02.02.02zM705 997.24v18.85zM813.75 997.24v18.85z" stroke="#000" stroke-width=".53" fill="#fff"/><path d="M759.38 1015H705M759.38 1015h54.37" stroke="#000" stroke-width=".53" fill="none"/><use xlink:href="#x" transform="matrix(1,0,0,1,738.82125,1004.324264) translate(3.7018310546874993 17.0814892578125)"/><path d="M705 1172.76v-23.85zM1047.5 1172.76v-33.85z" stroke="#000" stroke-width=".53" fill="#fff"/><path d="M876.25 1155H705M876.25 1155h171.25" stroke="#000" stroke-width=".53" fill="none"/><use xlink:href="#y" transform="matrix(1,0,0,1,850.5625,1144.3451289999998) translate(3.7532958984375 17.0814892578125)"/><path d="M1055 1284.98s0 .02.02.02h182.46s.02 0 .02-.02v-7.46s0-.02-.02-.02h-182.46s-.02 0-.02.02zM1055 949.98s0 .02.02.02h182.46s.02 0 .02-.02v-7.46s0-.02-.02-.02h-182.46s-.02 0-.02.02z" stroke="#000" stroke-width=".53" fill="#fff"/><path d="M1230 1284.98s0 .02.02.02h7.46s.02 0 .02-.02V942.52s0-.02-.02-.02h-7.46s-.02 0-.02.02zM1055 1284.98s0 .02.02.02h7.46s.02 0 .02-.02V942.52s0-.02-.02-.02h-7.46s-.02 0-.02.02zM1050 942.48s0 .02.02.02h192.46s.02 0 .02-.02v-7.46s0-.02-.02-.02h-192.46s-.02 0-.02.02zM1055 1331.5c0 .02 0 .02 0 0v-41.34zM1237.5 1331.5c0 .02 0 .02 0 0v-41.34z" stroke="#000" stroke-width=".53" fill="#fff"/><path d="M1146.25 1313.73H1055M1146.25 1313.73h91.25" stroke="#000" stroke-width=".53" fill="none"/><use xlink:href="#z" transform="matrix(1,0,0,1,1120.7,1303.0937569999999) translate(3.7532958984375 17.0814892578125)"/><path d="M817.5 627.48s0 .02.02.02h342.46s.02 0 .02-.02V432.52s0-.02-.02-.02H817.52s-.02 0-.02.02z" stroke="#000" stroke-width=".53" fill="#fff"/><g stroke="#000" stroke-width=".53"><path d="M952.24 970h48.85zM952.24 935h88.85z" fill="#fff"/><path d="M970 996.66V970M970 908.34V935" fill="none"/></g><use xlink:href="#A" transform="matrix(0.9999999999999999,0,0,0.9999999999999999,949.3789478379409,941.7892374648371) translate(8.6416845703125 17.0814892578125)"/><path d="M879.98 1110s.02 0 .02-.02v-67.46s0-.02-.02-.02h-7.46s-.02 0-.02.02v67.46s0 .02.02.02zM585.8 1346.4H963.3v-7.47-.02H585.8v.03z" stroke="#000" stroke-width=".53" fill="#fff"/><path d="M595.8 1653.9h7.48v-309.97-.02h-7.47v.03zM945.8 1653.9h7.48v-309.97-.02h-7.47v.03z" stroke="#000" stroke-width=".53" fill="#fff"/><path d="M600.82 1346.4c-.02 0-.02.02-.02.03v7.46l347.47.02c.02 0 .02 0 .02-.02v-7.46c0-.02 0-.02-.02-.02zM600.32 1646.4c-.02 0-.02.02-.02.03v7.46l347.47.02c.02 0 .02 0 .02-.02v-7.46c0-.02 0-.02-.02-.02zM600.82 1406.4c-.02 0-.02.02-.02.03v7.46l347.47.02c.02 0 .02 0 .02-.02v-7.46c0-.02 0-.02-.02-.02zM600.82 1476.4c-.02 0-.02.02-.02.03v7.46l347.47.02c.02 0 .02 0 .02-.02v-7.46c0-.02 0-.02-.02-.02z" stroke="#000" stroke-width=".53" fill="#fff"/><use xlink:href="#B" transform="matrix(0.9999999999999999,-4.669739225025057e-16,4.669739225025057e-16,0.9999999999999999,600.7960000110196,1476.3395) translate(156.697490234375 0.21046386718749943)"/><use xlink:href="#C" transform="matrix(0.9999999999999999,-4.669739225025057e-16,4.669739225025057e-16,0.9999999999999999,600.7960000110196,1476.3395) translate(174 19.952514648437504)"/><path d="M600.82 1556.4c-.02 0-.02.02-.02.03v7.46l347.47.02c.02 0 .02 0 .02-.02v-7.46c0-.02 0-.02-.02-.02zM595.8 1301.16V1330c0 .02 0 .02 0 0zM953.3 1301.16V1330c0 .02 0 .02 0 0z" stroke="#000" stroke-width=".53" fill="#fff"/><path d="M774.54 1318.9H595.8M774.54 1318.9H953.3" stroke="#000" stroke-width=".53" fill="none"/><use xlink:href="#s" transform="matrix(1,0,0,1,751.3074999999999,1308.243694) translate(3.6974902343749996 17.0814892578125)"/><g stroke="#000" stroke-width=".53"><path d="M991.05 1406.4l-33.85.02zM991.05 1353.9l-33.85.02z" fill="#fff"/><path d="M973.28 1380.16v26.25M973.28 1380.16v-26.25" fill="none"/></g><use xlink:href="#t" transform="matrix(0.9999999999999999,0,0,0.9999999999999999,952.7089140963371,1369.5161690108694) translate(3.6974902343749996 17.0814892578125)"/><path d="M836.6 1408.9h.03v-57.47s0-.02-.02-.02l-7.45.02s-.02 0-.02.02v57.46s0 .02.02.02zM603.3 1708.9H945.8v-7.47-.02H603.3v.03z" stroke="#000" stroke-width=".53" fill="#fff"/><g stroke="#000" stroke-width=".53"><path d="M991.05 1413.9l-33.85.02zM991.05 1476.4l-33.85.02z" fill="#fff"/><path d="M973.28 1445.16v31.25M973.28 1445.16v-31.25" fill="none"/></g><g><use xlink:href="#u" transform="matrix(0.9999999999999999,0,0,0.9999999999999999,952.7214141147033,1434.521169010869) translate(3.6974902343749996 17.0814892578125)"/></g><path d="M600.8 1696.4H948.3v-14.97-.02H600.8v.03z" stroke="#000" stroke-width=".53" fill="#fff"/><g stroke="#000" stroke-width=".53"><path d="M991.05 1556.4l-33.85.02zM991.05 1483.9l-33.85.02z" fill="#fff"/><path d="M973.28 1520.16v36.25M973.28 1520.16v-36.25" fill="none"/></g><g><use xlink:href="#v" transform="matrix(0.9999999999999999,0,0,0.9999999999999999,952.7251639999157,1509.4899190108695) translate(3.6974902343749996 17.0814892578125)"/></g><path d="M599.54 1676.4h347.49v-14.97-.02H599.55v.03z" stroke="#000" stroke-width=".53" fill="#fff"/><g stroke="#000" stroke-width=".53"><path d="M990.55 1646.4l-33.85.02zM990.55 1563.9l-33.34.02z" fill="#fff"/><path d="M972.78 1605.16v41.25M972.78 1605.16v-41.25" fill="none"/></g><g><use xlink:href="#w" transform="matrix(0.9999999999999999,0,0,0.9999999999999999,952.1901639999156,1594.48991901087) translate(3.6974902343749996 17.0814892578125)"/></g><g><path d="M719.94 1408.9h.02v-57.47s0-.02-.02-.02l-7.46.02s-.02 0-.02.02v57.46s0 .02.02.02z" stroke="#000" stroke-width=".53" fill="#fff"/></g><path d="M837.04 1366.16V1390c0 .02 0 .02 0 0zM945.8 1366.16V1390c0 .02 0 .02 0 0z" stroke="#000" stroke-width=".53" fill="#fff"/><path d="M891.42 1383.9h-54.38M891.42 1383.9h54.38" stroke="#000" stroke-width=".53" fill="none"/><g><use xlink:href="#x" transform="matrix(1,0,0,1,870.8662499999999,1373.255922) translate(3.7018310546874993 17.0814892578125)"/></g><path d="M603.3 1366.16V1385c0 .02 0 .02 0 0zM712.04 1366.16V1385c0 .02 0 .02 0 0z" stroke="#000" stroke-width=".53" fill="#fff"/><path d="M657.67 1383.9H603.3M657.67 1383.9h54.38" stroke="#000" stroke-width=".53" fill="none"/><g><use xlink:href="#x" transform="matrix(1,0,0,1,637.1162499999999,1373.239264) translate(3.7018310546874993 17.0814892578125)"/></g><path d="M603.3 1541.67v-23.83zM945.8 1541.67v-36.35z" stroke="#000" stroke-width=".53" fill="#fff"/><path d="M774.54 1523.9H603.3M774.54 1523.9H945.8" stroke="#000" stroke-width=".53" fill="none"/><g><use xlink:href="#y" transform="matrix(1,0,0,1,748.8575,1513.2368020000001) translate(3.7532958984375 17.0814892578125)"/></g><g><path d="M778.28 1478.9h.02v-67.47s0-.02-.03-.02l-7.46.02V1478.9s0 .02.02.02z" stroke="#000" stroke-width=".53" fill="#fff"/></g><path d="M585.78 1284.9v48.88zM595.76 1284.9v75.1c0 .02 0 .02 0 0zM538.55 1302.7h47.2c.02 0 .02 0 0 0z" stroke="#000" stroke-width=".53" fill="#fff"/><path d="M559.18 1302.7h26.6M622.45 1302.7h-26.7" stroke="#000" stroke-width=".53" fill="none"/><defs><path d="M720-1253V0H530v-1253H46v-156h1158v156H720" id="D"/><path d="M571-1102c350 0 480 196 482 560 2 357-151 562-488 562C233 20 86-198 86-542c0-373 162-560 485-560zm-8 989c244 0 301-164 301-429 0-266-49-427-290-427-239 0-299 165-299 427 0 252 61 429 288 429" id="E"/><path d="M320-908c63-128 152-193 335-193 133 0 233 45 299 134s99 230 99 421c0 377-133 566-398 566-167 0-279-63-336-188h-5c8 141 2 428 4 593H138V-861c0-111-2-185-6-221h174c5 33 9 134 10 174h4zm-2 380c0 254 57 415 289 415 89 0 149-37 195-99 76-105 79-547 1-653-45-62-105-97-194-97-243 1-291 184-291 434" id="F"/><g id="a"><use transform="matrix(0.008681640625,0,0,0.008681640625,0,0)" xlink:href="#D"/><use transform="matrix(0.008681640625,0,0,0.008681640625,8.89,0)" xlink:href="#E"/><use transform="matrix(0.008681640625,0,0,0.008681640625,18.778388671875,0)" xlink:href="#F"/></g><path d="M496 424C268 175 127-92 127-532c0-438 143-704 369-952h174c-222 249-362 524-362 954 0 431 138 703 362 954H496" id="G"/><path d="M715-719c191 17 334 134 334 330 0 274-191 409-478 409-283 0-463-130-493-382l186-17c24 167 126 250 307 250 177 0 294-88 291-266-3-174-149-246-344-244H416v-156h98c179 2 311-77 311-243 0-157-98-244-264-244-159 0-264 88-278 233l-181-14c23-229 206-367 461-367 262 0 447 124 447 373 0 197-120 298-295 334v4" id="H"/><path d="M598-899c268 0 455 178 455 440 0 299-196 479-500 479C293 20 124-98 82-315l182-21c38 139 136 209 293 209 195 0 309-130 309-328 0-177-124-301-305-297-120 3-189 38-262 101H123l47-758h801v153H334l-27 447c78-60 175-90 291-90" id="I"/><path d="M513 0H365l881-1409h145zm990-180V-2h-131v-178H966v-111l386-557h151v555h111v113h-111zm-129-535c-72 130-195 295-281 422h279c1-140-2-285 2-422zM491-997c114 10 198 80 197 202-1 165-122 244-297 244-191 0-297-76-318-227l136-13c12 91 73 136 182 136 107 0 160-49 160-148 0-111-107-147-250-137v-109c126 10 228-24 229-137 0-84-56-129-145-129-91 0-151 50-158 135l-135-12c16-146 132-229 297-229 156 0 278 74 278 217 0 116-73 182-176 207" id="J"/><g id="b"><use transform="matrix(0.008681640625,0,0,0.008681640625,0,0)" xlink:href="#G"/><use transform="matrix(0.008681640625,0,0,0.008681640625,5.9208789062500005,0)" xlink:href="#H"/><use transform="matrix(0.008681640625,0,0,0.008681640625,15.809267578125002,0)" xlink:href="#I"/><use transform="matrix(0.008681640625,0,0,0.008681640625,25.69765625,0)" xlink:href="#J"/></g><path d="M801 0L510-444 217 0H23l385-556-367-526h199l270 421 268-421h201L612-558 1002 0H801" id="K"/><use transform="matrix(0.008681640625,0,0,0.008681640625,0,0)" xlink:href="#K" id="c"/><path d="M156 0v-153h359v-1084l-318 227v-170l333-229h166v1256h343V0H156" id="L"/><path d="M96-956c0-291 177-474 469-474 157 0 275 58 356 174s121 290 121 523c0 242-44 428-132 558S695 20 532 20c-237 0-353-99-407-294l172-27c36 117 115 176 238 176 103 0 183-48 240-144s86-233 89-411c-46 113-193 199-350 199-261 0-418-205-418-475zm461 333c171-3 285-111 289-284 4-204-98-376-287-377-181-1-280 140-280 328 0 190 98 336 278 333" id="M"/><path d="M493 0H345l881-1409h145zM56-563v-107h211v-620L65-1152v-120l210-137h123v739h215v107H56zm1308-297c159 0 277 80 276 233 0 98-63 193-188 285-81 60-139 105-172 136s-57 61-70 91h443V-2h-600l-2-103c59-119 148-190 267-274 65-45 110-88 141-124 82-94 46-251-101-251-93 0-155 54-164 141l-133-8c16-144 137-239 303-239" id="N"/><path d="M186-1484c228 249 369 516 369 956 0 438-143 704-369 952H12C235 172 374-97 374-530c0-431-140-704-362-954h174" id="O"/><g id="d"><use transform="matrix(0.008681640625,0,0,0.008681640625,0,0)" xlink:href="#L"/><use transform="matrix(0.008681640625,0,0,0.008681640625,9.888388671875001,0)" xlink:href="#M"/><use transform="matrix(0.008681640625,0,0,0.008681640625,19.776777343750002,0)" xlink:href="#N"/><use transform="matrix(0.008681640625,0,0,0.008681640625,34.60501953125,0)" xlink:href="#O"/></g><use transform="matrix(0.008681640625,0,0,0.008681640625,0,0)" xlink:href="#L" id="e"/><path d="M572-1430c269 0 442 128 442 386 0 144-72 232-149 325-108 130-487 366-564 566h735V0H103v-127c119-285 378-432 583-627 76-72 141-150 143-284 1-156-100-244-257-244-156 0-263 93-277 238l-184-17c24-224 208-369 461-369" id="P"/><path d="M1059-705c0 235-42 415-125 539S729 20 567 20 283-42 202-165 80-468 80-705c0-242 39-423 118-544s204-181 375-181c166 0 288 61 367 183s119 303 119 542zM802-269c94-156 93-724 4-878-51-89-125-137-233-137-111 0-186 48-239 135-91 149-91 731 2 883 55 89 126 139 233 139 106 0 178-51 233-142" id="Q"/><path d="M493 0H345l881-1409h145zM56-563v-107h211v-620L65-1152v-120l210-137h123v739h215v107H56zm1447 383V-2h-131v-178H966v-111l386-557h151v555h111v113h-111zm-129-535c-72 130-195 295-281 422h279c1-140-2-285 2-422" id="R"/><g id="f"><use transform="matrix(0.008681640625,0,0,0.008681640625,0,0)" xlink:href="#P"/><use transform="matrix(0.008681640625,0,0,0.008681640625,9.888388671875001,0)" xlink:href="#Q"/><use transform="matrix(0.008681640625,0,0,0.008681640625,19.776777343750002,0)" xlink:href="#R"/></g><path d="M1036-1263c-144 220-246 392-305 517C626-522 556-302 553 0H365c0-180 39-369 115-568s203-429 382-688H105v-153h931v146" id="S"/><g id="g"><use transform="matrix(0.008681640625,0,0,0.008681640625,0,0)" xlink:href="#H"/><use transform="matrix(0.008681640625,0,0,0.008681640625,9.888388671875001,0)" xlink:href="#S"/></g><use transform="matrix(0.008681640625,0,0,0.008681640625,0,0)" xlink:href="#R" id="h"/><use transform="matrix(0.008681640625,0,0,0.008681640625,0,0)" xlink:href="#L" id="i"/><path d="M1207-1021c-59-155-207-253-415-253-322-2-494 232-494 563 0 326 186 574 502 574 197 0 346-98 445-293l156 78C1298-131 1096 20 791 20c-448 0-682-279-687-731-5-437 254-721 686-719 309 2 507 125 598 349" id="T"/><path d="M797-207C713-60 620 16 414 20 203 24 88-98 87-302c0-112 37-198 111-258s192-93 356-96l243-4c10-201-43-307-232-305-154 2-223 43-242 172l-188-17c31-195 175-292 434-292s410 116 410 364v466c3 95 12 159 101 161 17 0 37-2 59-7V-6c-45 11-92 16-139 16-143-2-188-76-197-217h-6zm-525-92c-1 116 66 187 183 184 230-7 361-164 342-419-124 5-305-2-389 30-83 32-136 92-136 205" id="U"/><path d="M513-963c-139 1-238 29-238 149 0 72 41 100 95 127 55 27 348 94 404 125 101 56 176 118 176 263C950-73 758 21 511 20 254 19 107-55 57-254l159-31c34 123 133 168 295 168 156 0 264-34 264-168 0-156-183-165-315-204-171-51-245-68-323-172-26-35-37-82-37-135 0-220 172-304 413-303 232 1 379 74 418 265l-162 20c-23-104-122-150-256-149" id="V"/><path d="M87-548c0-338 159-553 484-554 325-2 484 204 477 599H276c-1 227 88 385 302 388 146 2 246-65 283-166l158 45C954-65 807 20 578 20 240 20 87-193 87-548zm775-93c-19-206-90-328-294-328-185 0-285 140-290 328h584" id="W"/><g id="j"><use transform="matrix(0.008681640625,0,0,0.008681640625,0,0)" xlink:href="#T"/><use transform="matrix(0.008681640625,0,0,0.008681640625,12.840146484375001,0)" xlink:href="#U"/><use transform="matrix(0.008681640625,0,0,0.008681640625,22.728535156250004,0)" xlink:href="#V"/><use transform="matrix(0.008681640625,0,0,0.008681640625,31.618535156250005,0)" xlink:href="#W"/></g><path d="M137-1312v-172h180v172H137zM137 0v-1082h180V0H137" id="X"/><path d="M835 0c-5-29-11-137-10-174h-4C759-45 663 20 484 20 177 20 86-201 86-536c0-377 133-566 398-566 178 1 273 67 339 188-4-187-1-380-2-570h180v1261c0 113 2 187 6 223H835zm-14-554c0-255-58-415-289-415-91 0-151 37-196 101-76 109-77 543-1 651 44 63 105 98 195 98 235 0 291-173 291-435" id="Y"/><g id="k"><use transform="matrix(0.008681640625,0,0,0.008681640625,0,0)" xlink:href="#V"/><use transform="matrix(0.008681640625,0,0,0.008681640625,8.89,0)" xlink:href="#X"/><use transform="matrix(0.008681640625,0,0,0.008681640625,12.840146484375001,0)" xlink:href="#Y"/><use transform="matrix(0.008681640625,0,0,0.008681640625,22.728535156250004,0)" xlink:href="#W"/></g><g id="l"><use transform="matrix(0.008681640625,0,0,0.008681640625,0,0)" xlink:href="#G"/><use transform="matrix(0.008681640625,0,0,0.008681640625,5.9208789062500005,0)" xlink:href="#H"/><use transform="matrix(0.008681640625,0,0,0.008681640625,15.809267578125002,0)" xlink:href="#L"/><use transform="matrix(0.008681640625,0,0,0.008681640625,25.69765625,0)" xlink:href="#N"/></g><use transform="matrix(0.008681640625,0,0,0.008681640625,0,0)" xlink:href="#K" id="m"/><g id="n"><use transform="matrix(0.008681640625,0,0,0.008681640625,0,0)" xlink:href="#G"/><use transform="matrix(0.008681640625,0,0,0.008681640625,5.9208789062500005,0)" xlink:href="#L"/><use transform="matrix(0.008681640625,0,0,0.008681640625,15.809267578125002,0)" xlink:href="#M"/><use transform="matrix(0.008681640625,0,0,0.008681640625,25.69765625,0)" xlink:href="#N"/></g><path d="M91-464v-160h500v160H91" id="Z"/><use transform="matrix(0.008681640625,0,0,0.008681640625,0,0)" xlink:href="#Z" id="o"/><path d="M824-897c-1-17 6-175 12-185h171c-12 319-6 716-6 1051 0 304-151 456-453 456-226 0-374-90-417-267l181-26c24 102 112 157 241 156 179 0 269-105 269-315 0-57 3-120-2-174C759-74 647 8 472 8 339 8 242-36 180-124S86-350 86-539c0-191 33-332 100-423s169-137 306-137c167 0 273 85 332 202zm-38 579c48-119 46-331 0-450-42-108-118-197-250-197-92 0-154 37-201 100-78 107-74 530-4 643 63 101 251 129 353 47 43-35 77-81 102-143" id="aa"/><g id="p"><use transform="matrix(0.008681640625,0,0,0.008681640625,0,0)" xlink:href="#W"/><use transform="matrix(0.008681640625,0,0,0.008681640625,9.888388671875001,0)" xlink:href="#Y"/><use transform="matrix(0.008681640625,0,0,0.008681640625,19.776777343750002,0)" xlink:href="#aa"/><use transform="matrix(0.008681640625,0,0,0.008681640625,29.665166015625005,0)" xlink:href="#W"/></g><path d="M655-1102c307 0 398 221 398 556 0 377-133 566-398 566-180 0-272-66-339-188 1 22-7 151-10 168H132c4-36 6-110 6-223v-1261h180c-2 196 4 384-4 576h4c62-129 158-194 337-194zM318-529c0 254 57 416 289 416 91 0 152-37 197-101 76-109 76-543 0-651-44-63-105-98-195-98-236 0-291 169-291 434" id="ab"/><path d="M663-1102c251 0 343 119 343 381V0H825v-686c0-183-40-279-223-277-184 2-280 141-280 336V0H142c-3-345 6-754-6-1082h170c5 68 6 94 8 185h3c76-134 157-205 346-205" id="ac"/><g id="q"><use transform="matrix(0.008681640625,0,0,0.008681640625,0,0)" xlink:href="#ab"/><use transform="matrix(0.008681640625,0,0,0.008681640625,9.888388671875001,0)" xlink:href="#U"/><use transform="matrix(0.008681640625,0,0,0.008681640625,19.776777343750002,0)" xlink:href="#ac"/><use transform="matrix(0.008681640625,0,0,0.008681640625,29.665166015625005,0)" xlink:href="#Y"/><use transform="matrix(0.008681640625,0,0,0.008681640625,39.553554687500004,0)" xlink:href="#X"/><use transform="matrix(0.008681640625,0,0,0.008681640625,43.503701171875,0)" xlink:href="#ac"/><use transform="matrix(0.008681640625,0,0,0.008681640625,53.39208984375,0)" xlink:href="#aa"/></g><path d="M740-934C689-691 665-619 508 0H300L-3-1082h178c78 327 154 591 226 933 77-315 163-621 243-933h193c78 311 160 619 235 933 72-318 158-621 236-933h176L1174 0H965c-74-312-158-615-225-934" id="ad"/><path d="M336-268c2 98 22 139 114 141 24 0 59-5 104-14V-8C495 8 434 16 372 16c-144 0-216-82-216-245v-722H31v-131h132l53-242h120v242h200v131H336v683" id="ae"/><path d="M322-1484c-2 195 6 405-8 587h3c73-129 159-205 346-205 250 0 342 118 343 381V0H825v-686c3-190-43-277-223-277-176-1-280 140-280 325V0H142v-1484h180" id="af"/><g id="r"><use transform="matrix(0.008681640625,0,0,0.008681640625,0,0)" xlink:href="#ad"/><use transform="matrix(0.008681640625,0,0,0.008681640625,12.840146484375001,0)" xlink:href="#X"/><use transform="matrix(0.008681640625,0,0,0.008681640625,16.790292968750002,0)" xlink:href="#Y"/><use transform="matrix(0.008681640625,0,0,0.008681640625,26.678681640625,0)" xlink:href="#ae"/><use transform="matrix(0.008681640625,0,0,0.008681640625,31.61853515625,0)" xlink:href="#af"/><use transform="matrix(0.008681640625,0,0,0.008681640625,41.506923828125004,0)" xlink:href="#O"/><use transform="matrix(0.008681640625,0,0,0.008681640625,47.427802734375,0)" xlink:href="#O"/></g><g id="s"><use transform="matrix(0.008681640625,0,0,0.008681640625,0,0)" xlink:href="#H"/><use transform="matrix(0.008681640625,0,0,0.008681640625,9.888388671875001,0)" xlink:href="#I"/><use transform="matrix(0.008681640625,0,0,0.008681640625,19.776777343750002,0)" xlink:href="#J"/></g><path d="M187 0v-219h195V0H187" id="ag"/><g id="t"><use transform="matrix(0.008681640625,0,0,0.008681640625,0,0)" xlink:href="#I"/><use transform="matrix(0.008681640625,0,0,0.008681640625,9.888388671875001,0)" xlink:href="#ag"/><use transform="matrix(0.008681640625,0,0,0.008681640625,14.828242187500003,0)" xlink:href="#P"/><use transform="matrix(0.008681640625,0,0,0.008681640625,24.716630859375,0)" xlink:href="#I"/></g><path d="M625-911c261-2 424 185 424 450 0 289-169 481-455 481-159 0-280-59-364-177S104-447 104-672c0-244 44-431 131-562s212-196 373-196c213 0 347 96 402 287l-172 31c-35-115-113-172-232-172-103 0-182 48-238 144s-85 234-85 415c59-113 178-184 342-186zm-37 786c182 0 278-138 278-328 0-193-98-318-284-319-166-1-281 107-281 276 0 195 106 371 287 371" id="ah"/><g id="u"><use transform="matrix(0.008681640625,0,0,0.008681640625,0,0)" xlink:href="#ah"/><use transform="matrix(0.008681640625,0,0,0.008681640625,9.888388671875001,0)" xlink:href="#ag"/><use transform="matrix(0.008681640625,0,0,0.008681640625,14.828242187500003,0)" xlink:href="#P"/><use transform="matrix(0.008681640625,0,0,0.008681640625,24.716630859375,0)" xlink:href="#I"/></g><g id="v"><use transform="matrix(0.008681640625,0,0,0.008681640625,0,0)" xlink:href="#S"/><use transform="matrix(0.008681640625,0,0,0.008681640625,9.888388671875001,0)" xlink:href="#ag"/><use transform="matrix(0.008681640625,0,0,0.008681640625,14.828242187500003,0)" xlink:href="#P"/><use transform="matrix(0.008681640625,0,0,0.008681640625,24.716630859375,0)" xlink:href="#I"/></g><path d="M765-739c171 25 285 155 285 346-1 274-191 413-480 413C286 20 89-117 89-391c0-183 123-323 281-346v-4c-143-30-248-160-248-328 1-229 198-361 444-361 254 0 448 125 449 363 1 166-104 300-250 324v4zm-197-70c171-2 261-74 260-248 0-159-87-239-262-239-165 0-260 77-260 239 0 163 99 249 262 248zm4 694c200 0 291-92 291-295 1-179-116-264-297-264-175 0-292 98-291 268 0 194 99 291 297 291" id="ai"/><g id="w"><use transform="matrix(0.008681640625,0,0,0.008681640625,0,0)" xlink:href="#ai"/><use transform="matrix(0.008681640625,0,0,0.008681640625,9.888388671875001,0)" xlink:href="#ag"/><use transform="matrix(0.008681640625,0,0,0.008681640625,14.828242187500003,0)" xlink:href="#P"/><use transform="matrix(0.008681640625,0,0,0.008681640625,24.716630859375,0)" xlink:href="#I"/></g><path d="M1178-631c0 165 245 182 267 46 17-102-23-182-131-176-91 0-137 40-137 131zm142 540c102 0 154-51 154-159 0-102-51-148-159-148-102 0-154 51-154 148-6 108 51 159 159 159zm-6 102c-313 57-404-404-131-455-250-80-148-449 131-415 284-51 375 353 131 410 284 91 182 495-131 461zM313-563c6-330 154-523 290-734H142v-114h592v102c-137 216-284 404-290 745H313zM432 0H284l882-1411h142" id="aj"/><g id="x"><use transform="matrix(0.008681640625,0,0,0.008681640625,0,0)" xlink:href="#L"/><use transform="matrix(0.008681640625,0,0,0.008681640625,9.888388671875001,0)" xlink:href="#Q"/><use transform="matrix(0.008681640625,0,0,0.008681640625,19.776777343750002,0)" xlink:href="#aj"/></g><path d="M881-319V0H711v-319H47v-140l645-950h189v948h198v142H881zm-170-887c-5 12-60 109-67 119-145 207-281 424-431 626h498v-745" id="ak"/><g id="y"><use transform="matrix(0.008681640625,0,0,0.008681640625,0,0)" xlink:href="#H"/><use transform="matrix(0.008681640625,0,0,0.008681640625,9.888388671875001,0)" xlink:href="#ak"/><use transform="matrix(0.008681640625,0,0,0.008681640625,19.776777343750002,0)" xlink:href="#ag"/><use transform="matrix(0.008681640625,0,0,0.008681640625,24.716630859375,0)" xlink:href="#P"/><use transform="matrix(0.008681640625,0,0,0.008681640625,34.60501953125,0)" xlink:href="#I"/></g><g id="z"><use transform="matrix(0.008681640625,0,0,0.008681640625,0,0)" xlink:href="#L"/><use transform="matrix(0.008681640625,0,0,0.008681640625,9.888388671875001,0)" xlink:href="#ai"/><use transform="matrix(0.008681640625,0,0,0.008681640625,19.776777343750002,0)" xlink:href="#ag"/><use transform="matrix(0.008681640625,0,0,0.008681640625,24.716630859375,0)" xlink:href="#P"/><use transform="matrix(0.008681640625,0,0,0.008681640625,34.60501953125,0)" xlink:href="#I"/></g><g id="A"><use transform="matrix(0.008681640625,0,0,0.008681640625,0,0)" xlink:href="#H"/><use transform="matrix(0.008681640625,0,0,0.008681640625,9.888388671875001,0)" xlink:href="#ag"/><use transform="matrix(0.008681640625,0,0,0.008681640625,14.828242187500003,0)" xlink:href="#I"/></g><g id="B"><use transform="matrix(0.008681640625,0,0,0.008681640625,0,0)" xlink:href="#H"/><use transform="matrix(0.008681640625,0,0,0.008681640625,9.888388671875001,0)" xlink:href="#ak"/><use transform="matrix(0.008681640625,0,0,0.008681640625,19.776777343750002,0)" xlink:href="#J"/></g></defs></g></svg>