<svg xmlns="http://www.w3.org/2000/svg" xmlns:xlink="http://www.w3.org/1999/xlink" xmlns:lucid="lucid" width="1360" height="1760"><g transform="translate(0 0)" lucid:page-tab-id="Evsll7hR8MeWr"><path d="M0 0h1360v1760H0z" fill="#fff"/><path d="M152.5 924.98s0 .02.02.02h499.96s.02 0 .02-.02v-7.46s0-.02-.02-.02H152.52s-.02 0-.02.02zM230 1432.48s0 .02.02.02h199.96s.02 0 .02-.02v-12.46s0-.02-.02-.02H230.02s-.02 0-.02.02zM230 1499.98s0 .02.02.02h199.96s.02 0 .02-.02v-12.46s0-.02-.02-.02H230.02s-.02 0-.02.02zM950 1432.48s0 .02.02.02h199.96s.02 0 .02-.02v-12.46s0-.02-.02-.02H950.02s-.02 0-.02.02zM950 1499.98s0 .02.02.02h199.96s.02 0 .02-.02v-12.46s0-.02-.02-.02H950.02s-.02 0-.02.02zM142.5 619.98s0 .02.02.02h519.96s.02 0 .02-.02v-7.46s0-.02-.02-.02H142.52s-.02 0-.02.02z" stroke="#000" stroke-width=".53" fill="#fff"/><path d="M152.5 919.98s0 .02.02.02h7.46s.02 0 .02-.02V620.02s0-.02-.02-.02h-7.46s-.02 0-.02.02zM645 919.98s0 .02.02.02h7.46s.02 0 .02-.02V620.02s0-.02-.02-.02h-7.46s-.02 0-.02.02z" stroke="#000" stroke-width=".53" fill="#fff"/><path d="M50 539.98s0 .02.02.02h959.96s.02 0 .02-.02V60.02s0-.02-.02-.02H50.02s-.02 0-.02.02z" stroke="#000" stroke-width=".53" fill="#e6e6e6"/><path d="M175 1212.48s0 .02.02.02h519.96s.02 0 .02-.02V997.52s0-.02-.02-.02H175.02s-.02 0-.02.02z" stroke="#000" stroke-width=".53" fill="#fff"/><use xlink:href="#a" transform="matrix(1,0,0,1,175,997.5) translate(245.666611328125 103.7104638671875)"/><use xlink:href="#b" transform="matrix(1,0,0,1,175,997.5) translate(210.08924804687499 123.4525146484375)"/><use xlink:href="#c" transform="matrix(1,0,0,1,175,997.5) translate(255.555 123.4525146484375)"/><use xlink:href="#d" transform="matrix(1,0,0,1,175,997.5) translate(269.38485351562497 123.4525146484375)"/><path d="M440 254.98s0 .02.02.02h499.96s.02 0 .02-.02V60.02s0-.02-.02-.02H440.02s-.02 0-.02.02z" stroke="#000" stroke-width=".53" fill="#fff"/><use xlink:href="#a" transform="matrix(1,0,0,1,440,60) translate(235.666611328125 93.7104638671875)"/><use xlink:href="#e" transform="matrix(1,0,0,1,440,60) translate(207.503369140625 113.4525146484375)"/><use xlink:href="#c" transform="matrix(1,0,0,1,440,60) translate(238.14087890625 113.4525146484375)"/><use xlink:href="#f" transform="matrix(1,0,0,1,440,60) translate(251.97073242187503 113.4525146484375)"/><path d="M432.48 540s.02 0 .02-.02V345.02s0-.02-.02-.02H117.52s-.02 0-.02.02v194.96s0 .02.02.02z" stroke="#000" stroke-width=".53" fill="#fff"/><use xlink:href="#g" transform="matrix(0.9999999999999999,0,0,0.9999999999999999,117.38000035813859,345.1050005785292) translate(117.9681494140625 93.7104638671875)"/><use xlink:href="#h" transform="matrix(0.9999999999999999,0,0,0.9999999999999999,117.38000035813859,345.1050005785292) translate(164.4149267578125 93.7104638671875)"/><use xlink:href="#i" transform="matrix(0.9999999999999999,0,0,0.9999999999999999,117.38000035813859,345.1050005785292) translate(115.003369140625 113.4525146484375)"/><use xlink:href="#c" transform="matrix(0.9999999999999999,0,0,0.9999999999999999,117.38000035813859,345.1050005785292) translate(145.64087890625 113.4525146484375)"/><use xlink:href="#j" transform="matrix(0.9999999999999999,0,0,0.9999999999999999,117.38000035813859,345.1050005785292) translate(159.470732421875 113.4525146484375)"/><path d="M432.48 255s.02 0 .02-.02V60.02s0-.02-.02-.02H117.52s-.02 0-.02.02v194.96s0 .02.02.02z" stroke="#000" stroke-width=".53" fill="#fff"/><use xlink:href="#g" transform="matrix(0.9999999999999999,0,0,0.9999999999999999,117.38000035813855,60.105000578529115) translate(117.9681494140625 93.7104638671875)"/><use xlink:href="#h" transform="matrix(0.9999999999999999,0,0,0.9999999999999999,117.38000035813855,60.105000578529115) translate(164.4149267578125 93.7104638671875)"/><use xlink:href="#i" transform="matrix(0.9999999999999999,0,0,0.9999999999999999,117.38000035813855,60.105000578529115) translate(115.003369140625 113.4525146484375)"/><use xlink:href="#c" transform="matrix(0.9999999999999999,0,0,0.9999999999999999,117.38000035813855,60.105000578529115) translate(145.64087890625 113.4525146484375)"/><use xlink:href="#j" transform="matrix(0.9999999999999999,0,0,0.9999999999999999,117.38000035813855,60.105000578529115) translate(159.470732421875 113.4525146484375)"/><path d="M287.5 919.98s0 .02.02.02h7.46s.02 0 .02-.02V620.02s0-.02-.02-.02h-7.46s-.02 0-.02.02zM510 919.98s0 .02.02.02h7.46s.02 0 .02-.02V620.02s0-.02-.02-.02h-7.46s-.02 0-.02.02zM517.5 847.24v48.85zM645 847.24v48.85z" stroke="#000" stroke-width=".53" fill="#fff"/><path d="M581.25 865.02H517.5M581.25 865.02H645" stroke="#000" stroke-width=".53" fill="none"/><use xlink:href="#k" transform="matrix(1,0,0,1,555.75,854.3109049999999) translate(3.7532958984375 17.0814892578125)"/><path d="M160 847.24v48.85zM287.5 847.24v48.85z" stroke="#000" stroke-width=".53" fill="#fff"/><path d="M223.75 865.02H160M223.75 865.02h63.75" stroke="#000" stroke-width=".53" fill="none"/><use xlink:href="#k" transform="matrix(1,0,0,1,198.25,854.3109049999999) translate(3.7532958984375 17.0814892578125)"/><path d="M295 847.24v28.85zM510 847.24v18.86z" stroke="#000" stroke-width=".53" fill="#fff"/><path d="M402.5 865H295M402.5 865H510" stroke="#000" stroke-width=".53" fill="none"/><use xlink:href="#l" transform="matrix(1,0,0,1,376.915,854.3286939999999) translate(8.697490234375 17.0814892578125)"/><path d="M935 1569.98s0 .02.02.02h14.96s.02 0 .02-.02v-299.96s0-.02-.02-.02h-14.96s-.02 0-.02.02zM800 1569.98s0 .02.02.02h14.96s.02 0 .02-.02v-299.96s0-.02-.02-.02h-14.96s-.02 0-.02.02z" stroke="#000" stroke-width=".53" fill="#fff"/><use xlink:href="#m" transform="matrix(-0.000003673205103813548,-0.9999999999932537,0.9999999999932537,-0.000003673205103813548,657.5080693569862,1575.0030509797198) translate(123.8684423828125 156.0814892578125)"/><use xlink:href="#c" transform="matrix(-0.000003673205103813548,-0.9999999999932537,0.9999999999932537,-0.000003673205103813548,657.5080693569862,1575.0030509797198) translate(153.5249267578125 156.0814892578125)"/><use xlink:href="#n" transform="matrix(-0.000003673205103813548,-0.9999999999932537,0.9999999999932537,-0.000003673205103813548,657.5080693569862,1575.0030509797198) translate(167.3547802734375 156.0814892578125)"/><path d="M1150 1569.98s0 .02.02.02h14.96s.02 0 .02-.02v-299.96s0-.02-.02-.02h-14.96s-.02 0-.02.02zM1285 1569.98s0 .02.02.02h14.96s.02 0 .02-.02v-299.96s0-.02-.02-.02h-14.96s-.02 0-.02.02zM815 1364.98s0 .02.02.02h119.96s.02 0 .02-.02v-22.46s0-.02-.02-.02H815.02s-.02 0-.02.02zM722.5 694.98s0 .02.02.02h127.46s.02 0 .02-.02v-59.96s0-.02-.02-.02H722.52s-.02 0-.02.02zM857.5 694.98s0 .02.02.02h207.46s.02 0 .02-.02v-59.96s0-.02-.02-.02H857.52s-.02 0-.02.02zM1072.5 694.98s0 .02.02.02h127.46s.02 0 .02-.02v-59.96s0-.02-.02-.02h-127.46s-.02 0-.02.02zM722.5 907.48s0 .02.02.02h127.46s.02 0 .02-.02V712.52s0-.02-.02-.02H722.52s-.02 0-.02.02zM1072.5 907.48s0 .02.02.02h127.46s.02 0 .02-.02V712.52s0-.02-.02-.02h-127.46s-.02 0-.02.02zM857.5 772.48s0 .02.02.02h207.46s.02 0 .02-.02v-59.96s0-.02-.02-.02H857.52s-.02 0-.02.02zM857.5 907.48s0 .02.02.02h207.46s.02 0 .02-.02v-59.96s0-.02-.02-.02H857.52s-.02 0-.02.02zM857.5 839.98s0 .02.02.02h207.46s.02 0 .02-.02v-59.96s0-.02-.02-.02H857.52s-.02 0-.02.02zM80 1579.98s0 .02.02.02h7.46s.02 0 .02-.02v-309.96s0-.02-.02-.02h-7.46s-.02 0-.02.02zM572.5 1579.98s0 .02.02.02h7.46s.02 0 .02-.02v-309.96s0-.02-.02-.02h-7.46s-.02 0-.02.02zM215 1579.98s0 .02.02.02h7.46s.02 0 .02-.02v-309.96s0-.02-.02-.02h-7.46s-.02 0-.02.02zM437.5 1577.48s0 .02.02.02h7.46s.02 0 .02-.02v-309.96s0-.02-.02-.02h-7.46s-.02 0-.02.02zM445 1497.24v48.85zM572.5 1497.24v48.85z" stroke="#000" stroke-width=".53" fill="#fff"/><path d="M508.75 1515.02H445M508.75 1515.02h63.75" stroke="#000" stroke-width=".53" fill="none"/><use xlink:href="#k" transform="matrix(1,0,0,1,483.25,1504.310905) translate(3.7532958984375 17.0814892578125)"/><path d="M87.5 1497.24v48.85zM215 1497.24v48.85z" stroke="#000" stroke-width=".53" fill="#fff"/><path d="M151.25 1515.02H87.5M151.25 1515.02H215" stroke="#000" stroke-width=".53" fill="none"/><use xlink:href="#k" transform="matrix(1,0,0,1,125.75,1504.310905) translate(3.7532958984375 17.0814892578125)"/><path d="M222.5 1497.24v28.85zM437.5 1497.24v18.86z" stroke="#000" stroke-width=".53" fill="#fff"/><path d="M330 1515H222.5M330 1515h107.5" stroke="#000" stroke-width=".53" fill="none"/><use xlink:href="#l" transform="matrix(1,0,0,1,304.415,1504.328694) translate(8.697490234375 17.0814892578125)"/><path d="M215 1579.98s0 .02.02.02h14.96s.02 0 .02-.02v-297.46s0-.02-.02-.02h-14.96s-.02 0-.02.02zM80 1579.98s0 .02.02.02h14.96s.02 0 .02-.02v-309.96s0-.02-.02-.02H80.02s-.02 0-.02.02zM430 1579.98s0 .02.02.02h14.96s.02 0 .02-.02v-297.46s0-.02-.02-.02h-14.96s-.02 0-.02.02zM565 1579.98s0 .02.02.02h14.96s.02 0 .02-.02v-297.46s0-.02-.02-.02h-14.96s-.02 0-.02.02z" stroke="#000" stroke-width=".53" fill="#fff"/><path d="M80 1364.98s0 .02.02.02h499.96s.02 0 .02-.02v-22.46s0-.02-.02-.02H80.02s-.02 0-.02.02z" stroke="#000" stroke-width=".53" fill="#fff"/><path d="M91.25 1344.98s0 .02.02.02h127.46s.02 0 .02-.02v-59.96s0-.02-.02-.02H91.27s-.02 0-.02.02zM226.25 1344.98s0 .02.02.02h207.46s.02 0 .02-.02v-59.96s0-.02-.02-.02H226.27s-.02 0-.02.02zM441.25 1344.98s0 .02.02.02h127.46s.02 0 .02-.02v-59.96s0-.02-.02-.02H441.27s-.02 0-.02.02zM75 1359.98s0 .02.02.02h509.96s.02 0 .02-.02v-12.46s0-.02-.02-.02H75.02s-.02 0-.02.02zM91.25 1557.48s0 .02.02.02h127.46s.02 0 .02-.02v-194.96s0-.02-.02-.02H91.27s-.02 0-.02.02zM75 1612.48s0 .02.02.02h509.96s.02 0 .02-.02v-49.96s0-.02-.02-.02H75.02s-.02 0-.02.02z" stroke="#000" stroke-width=".53" fill="#fff"/><path d="M330.8 1591.02l56.34 1.6 30.1 2.12 18.25 2.06 12.05 1.9 8.46 1.68 6.22 1.5 4.7 1.37 3.66 1.23 2.92 1.1 2.36 1.03 1.94.94 1.63.87 1.37.82.53.34M330.82 1591.02l-.82-.02M481.32 1609.54l.68.46M330.2 1590.68l-56.35 1.58-30.1 2.13-18.24 2.06-12.05 1.88-8.46 1.7-6.22 1.5-4.7 1.36-3.66 1.23-2.92 1.1-2.36 1.03-1.95.94-1.63.87-1.37.8-.53.34M330.18 1590.68l.82-.03M179.68 1609.2l-.68.45" stroke="#000" stroke-width="1.6" fill="none"/><path d="M441.25 1557.48s0 .02.02.02h127.46s.02 0 .02-.02v-194.96s0-.02-.02-.02H441.27s-.02 0-.02.02zM226.25 1422.48s0 .02.02.02h207.46s.02 0 .02-.02v-59.96s0-.02-.02-.02H226.27s-.02 0-.02.02zM226.25 1557.48s0 .02.02.02h207.46s.02 0 .02-.02v-59.96s0-.02-.02-.02H226.27s-.02 0-.02.02zM226.25 1489.98s0 .02.02.02h207.46s.02 0 .02-.02v-59.96s0-.02-.02-.02H226.27s-.02 0-.02.02zM67.5 1269.98s0 .02.02.02h524.96s.02 0 .02-.02v-7.46s0-.02-.02-.02H67.52s-.02 0-.02.02zM75 1282.48s0 .02.02.02h509.96s.02 0 .02-.02v-12.46s0-.02-.02-.02H75.02s-.02 0-.02.02z" stroke="#000" stroke-width=".53" fill="#fff"/><g stroke="#000" stroke-width=".53"><path d="M272.24 1557.5h48.85zM272.24 1497.5h48.85z" fill="#fff"/><path d="M290.02 1527.5v30M290.02 1527.5v-30" fill="none"/></g><use xlink:href="#o" transform="matrix(0.9999999999999999,0,0,0.9999999999999999,269.3831513899388,1516.7878269892583) translate(16.0558056640625 17.0814892578125)"/><g stroke="#000" stroke-width=".53"><path d="M272.24 1422.5h48.85zM272.24 1362.5h48.85z" fill="#fff"/><path d="M290.02 1392.5v30M290.02 1392.5v-30" fill="none"/></g><use xlink:href="#o" transform="matrix(0.9999999999999999,0,0,0.9999999999999999,269.3831513899386,1381.787826989258) translate(16.0558056640625 17.0814892578125)"/><g stroke="#000" stroke-width=".53"><path d="M307.76 1490H263.9zM307.76 1430H263.9z" fill="#fff"/><path d="M290 1460v30M290 1460v-30" fill="none"/></g><use xlink:href="#o" transform="matrix(0.9999999999999999,0,0,0.9999999999999999,269.3929548896858,1449.3049087080565) translate(16.0558056640625 17.0814892578125)"/><g stroke="#000" stroke-width=".53"><path d="M557.76 1557.5H513.9zM557.76 1362.5H513.9z" fill="#fff"/><path d="M540 1460v97.5M540 1460v-97.5" fill="none"/></g><use xlink:href="#p" transform="matrix(0.9999999999999999,0,0,0.9999999999999999,514.457954999882,1449.3349087080562) translate(8.697490234375 17.0814892578125)"/><path d="M441.25 1547.76v-78.85zM568.75 1547.76v-78.85z" stroke="#000" stroke-width=".53" fill="#fff"/><path d="M505 1530.03h-63.75M505 1530.03h63.75" stroke="#000" stroke-width=".53" fill="none"/><use xlink:href="#k" transform="matrix(1,0,0,1,479.5,1519.299071) translate(3.7532958984375 17.0814892578125)"/><path d="M226.25 1557.76v-21.35zM433.75 1557.76v-21.35z" stroke="#000" stroke-width=".53" fill="#fff"/><path d="M330 1540H226.25M330 1540h103.75" stroke="#000" stroke-width=".53" fill="none"/><use xlink:href="#q" transform="matrix(1,0,0,1,329.3775,1529.331) translate(3.7532958984375 17.0814892578125)"/><path d="M91.25 1547.76v-78.85zM218.75 1547.76v-78.85z" stroke="#000" stroke-width=".53" fill="#fff"/><path d="M155 1530.03H91.25M155 1530.03h63.75" stroke="#000" stroke-width=".53" fill="none"/><use xlink:href="#k" transform="matrix(1,0,0,1,129.5,1519.299071) translate(3.7532958984375 17.0814892578125)"/><g stroke="#000" stroke-width=".53"><path d="M107.24 1557.5h38.85zM107.24 1362.5h38.85z" fill="#fff"/><path d="M125 1460v97.5M125 1460v-97.5" fill="none"/></g><use xlink:href="#p" transform="matrix(0.9999999999999999,0,0,0.9999999999999999,99.46871750010106,1449.3250245476895) translate(8.697490234375 17.0814892578125)"/><path d="M91.25 1342.76v-23.85zM218.75 1342.76v-23.85z" stroke="#000" stroke-width=".53" fill="#fff"/><path d="M155 1325H91.25M155 1325h63.75" stroke="#000" stroke-width=".53" fill="none"/><use xlink:href="#k" transform="matrix(1,0,0,1,119.42750000000001,1314.3259999999998) translate(3.7532958984375 17.0814892578125)"/><g stroke="#000" stroke-width=".53"><path d="M207.76 1345H163.9zM207.76 1285H163.9z" fill="#fff"/><path d="M190 1315v30M190 1315v-30" fill="none"/></g><use xlink:href="#o" transform="matrix(0.9999999999999999,0,0,0.9999999999999999,149.37994479174378,1289.3050092198462) translate(16.0558056640625 17.0814892578125)"/><g stroke="#000" stroke-width=".53"><path d="M382.76 1345H338.9zM382.76 1285H338.9z" fill="#fff"/><path d="M365 1315v30M365 1315v-30" fill="none"/></g><use xlink:href="#o" transform="matrix(0.9999999999999999,0,0,0.9999999999999999,364.36243159698955,1299.3248353560393) translate(16.0558056640625 17.0814892578125)"/><g stroke="#000" stroke-width=".53"><path d="M557.76 1345H513.9zM557.76 1285H513.9z" fill="#fff"/><path d="M540 1315v30M540 1315v-30" fill="none"/></g><use xlink:href="#o" transform="matrix(0.9999999999999999,0,0,0.9999999999999999,519.3929548896858,1304.3049087080565) translate(16.0558056640625 17.0814892578125)"/><path d="M226.25 1342.76v-13.85zM433.75 1342.76v-13.85z" stroke="#000" stroke-width=".53" fill="#fff"/><path d="M330 1325H226.25M330 1325h103.75" stroke="#000" stroke-width=".53" fill="none"/><use xlink:href="#q" transform="matrix(1,0,0,1,274.39,1309.338) translate(3.7532958984375 17.0814892578125)"/><path d="M722.5 961.23s0 .02.02.02h509.96s.02 0 .02-.02v-12.46s0-.02-.02-.02H722.52s-.02 0-.02.02z" stroke="#000" stroke-width=".53" fill="#fff"/><use xlink:href="#r" transform="matrix(1,0,0,1,722.5,938.75) translate(183.36344238281248 12.5814892578125)"/><use xlink:href="#s" transform="matrix(1,0,0,1,722.5,938.75) translate(216.97007324218748 12.5814892578125)"/><use xlink:href="#t" transform="matrix(1,0,0,1,722.5,938.75) translate(251.53168457031248 12.5814892578125)"/><use xlink:href="#c" transform="matrix(1,0,0,1,722.5,938.75) translate(282.1691943359375 12.5814892578125)"/><use xlink:href="#u" transform="matrix(1,0,0,1,722.5,938.75) translate(295.99904785156247 12.5814892578125)"/><path d="M80 1672.76v-33.85zM580 1672.76v-33.85z" stroke="#000" stroke-width=".53" fill="#fff"/><path d="M330 1655H80M330 1655h250" stroke="#000" stroke-width=".53" fill="none"/><use xlink:href="#v" transform="matrix(1,0,0,1,304.5,1644.3451289999998) translate(15.611611328124999 17.0814892578125)"/><g stroke="#000" stroke-width=".53"><path d="M707.76 1562.5H338.9zM707.76 1270H585.33z" fill="#fff"/><path d="M690.07 1416.25v146.25M690.07 1416.25V1270" fill="none"/></g><use xlink:href="#w" transform="matrix(0.9999999999999999,0,0,0.9999999999999999,664.4775774615791,1405.4053075610802) translate(3.7532958984375 17.0814892578125)"/><g stroke="#000" stroke-width=".53"><path d="M607.24 1610h48.85z" fill="#fff"/><path d="M625.02 1585v25M625.02 1585v-25" fill="none"/></g><use xlink:href="#x" transform="matrix(0.9999999999999999,0,0,0.9999999999999999,604.393151500135,1574.317826989258) translate(16.0558056640625 17.0814892578125)"/><path d="M50 539.98s0 .02.02.02h62.46s.02 0 .02-.02V60.02s0-.02-.02-.02H50.02s-.02 0-.02.02zM722.5 1016.23s0 .02.02.02h509.96s.02 0 .02-.02v-12.46s0-.02-.02-.02H722.52s-.02 0-.02.02z" stroke="#000" stroke-width=".53" fill="#fff"/><use xlink:href="#y" transform="matrix(1,0,0,1,722.5,992.5) translate(171.508662109375 12.5814892578125)"/><use xlink:href="#s" transform="matrix(1,0,0,1,722.5,992.5) translate(228.824853515625 12.5814892578125)"/><use xlink:href="#t" transform="matrix(1,0,0,1,722.5,992.5) translate(263.38646484375 12.5814892578125)"/><use xlink:href="#c" transform="matrix(1,0,0,1,722.5,992.5) translate(294.023974609375 12.5814892578125)"/><use xlink:href="#u" transform="matrix(1,0,0,1,722.5,992.5) translate(307.85382812499995 12.5814892578125)"/><path d="M1165 1364.98s0 .02.02.02h119.96s.02 0 .02-.02v-22.46s0-.02-.02-.02h-119.96s-.02 0-.02.02zM950 1364.98s0 .02.02.02h199.96s.02 0 .02-.02v-22.46s0-.02-.02-.02H950.02s-.02 0-.02.02zM815 1569.98s0 .02.02.02h119.96s.02 0 .02-.02v-14.96s0-.02-.02-.02H815.02s-.02 0-.02.02zM1165 1569.98s0 .02.02.02h119.96s.02 0 .02-.02v-14.96s0-.02-.02-.02h-119.96s-.02 0-.02.02zM950 1569.98s0 .02.02.02h199.96s.02 0 .02-.02v-14.96s0-.02-.02-.02H950.02s-.02 0-.02.02z" stroke="#000" stroke-width=".53" fill="#fff"/><path d="M722.52 1090s-.02 0-.02-.02v-49.96s0-.02.02-.02h509.96s.02 0 .02.02v49.96s0 .02-.02.02z" stroke="#000" stroke-width=".53" fill-opacity="0"/><path d="M1129.48 1090c-1.02-9.45-68.85-17.95-151.98-19M826.54 1089.65c.5-9.45 68.85-17.95 151.98-19" stroke="#000" stroke-width=".53" fill="none"/><use xlink:href="#z" transform="matrix(1,0,0,1,722.5,1040) translate(176.94770996093752 31.0814892578125)"/><use xlink:href="#s" transform="matrix(1,0,0,1,722.5,1040) translate(238.21404785156253 31.0814892578125)"/><use xlink:href="#t" transform="matrix(1,0,0,1,722.5,1040) translate(272.7756591796875 31.0814892578125)"/><use xlink:href="#c" transform="matrix(1,0,0,1,722.5,1040) translate(303.4131689453125 31.0814892578125)"/><use xlink:href="#A" transform="matrix(1,0,0,1,722.5,1040) translate(317.2430224609375 31.0814892578125)"/><path d="M815 1284.98s0 .02.02.02h119.96s.02 0 .02-.02v-14.96s0-.02-.02-.02H815.02s-.02 0-.02.02zM1165 1284.98s0 .02.02.02h119.96s.02 0 .02-.02v-14.96s0-.02-.02-.02h-119.96s-.02 0-.02.02zM950 1284.98s0 .02.02.02h199.96s.02 0 .02-.02v-14.96s0-.02-.02-.02H950.02s-.02 0-.02.02z" stroke="#000" stroke-width=".53" fill="#fff"/><g stroke="#000" stroke-width=".53"><path d="M709 910c.02 0 .02 0 0 0h-47.6zM709 620c.02 0 .02 0 0 0h-51.34z" fill="#fff"/><path d="M691.25 765v145M691.25 765V620" fill="none"/></g><use xlink:href="#B" transform="matrix(0.9999999999999999,0,0,0.9999999999999999,665.7017114998694,754.3367114355605) translate(16.111611328125 17.0814892578125)"/><g stroke="#000" stroke-width=".53"><path d="M664.74 960h23.85zM664.74 910h18.86z" fill="#fff"/><path d="M682.5 935v25M682.5 935v-25" fill="none"/></g><use xlink:href="#x" transform="matrix(0.9999999999999999,0,0,0.9999999999999999,661.9073605000506,924.3335890220017) translate(16.0558056640625 17.0814892578125)"/><g stroke="#000" stroke-width=".53"><path d="M107.24 924.98h23.86zM142.76 910.04H128.9c-.02 0-.02 0 0 0zM125 862.76v47.26z" fill="#fff"/><path d="M125 951.66v-26.68M125 883.37v26.67" fill="none"/></g><use xlink:href="#C" transform="matrix(0.9999999999999999,0,0,0.9999999999999999,104.41505050762845,852.1146870494076) translate(8.6416845703125 17.0814892578125)"/><g stroke="#000" stroke-width=".53"><path d="M64.74 910h58.86zM64.74 620h68.85z" fill="#fff"/><path d="M82.5 765v145M82.5 765V620" fill="none"/></g><use xlink:href="#B" transform="matrix(0.9999999999999999,0,0,0.9999999999999999,56.97536200016863,754.3222968471639) translate(16.111611328125 17.0814892578125)"/><g stroke="#000" stroke-width=".53"><path d="M747.24 1555h33.85zM747.24 1270H866.1z" fill="#fff"/><path d="M765.06 1412.5V1555M765.06 1412.5V1270" fill="none"/></g><use xlink:href="#D" transform="matrix(0.9999999999999999,0,0,0.9999999999999999,739.5478505235156,1401.9425357117505) translate(8.697490234375 17.0814892578125)"/><g stroke="#000" stroke-width=".53"><path d="M672.76 1562.48H338.9zM672.76 1557.5h-158.9zM655.08 1510.26v47.23z" fill="#fff"/><path d="M655.08 1589.16v-26.68M655.08 1530.83v26.68" fill="none"/></g><use xlink:href="#E" transform="matrix(0.9999999999999999,0,0,0.9999999999999999,634.4838412091976,1499.551954803733) translate(8.6416845703125 17.0814892578125)"/><g stroke="#000" stroke-width=".53"><path d="M617.76 1362.53H513.9zM617.76 1359.97H478.9zM600 1320.02v39.93z" fill="#fff"/><path d="M600 1389.16v-26.63M600 1333.35v26.62" fill="none"/></g><use xlink:href="#F" transform="matrix(0.9999999999999999,0,0,0.9999999999999999,579.3915684799691,1309.3053725222717) translate(3.6974902343749996 17.0814892578125)"/><g stroke="#000" stroke-width=".53"><path d="M647.76 1347.5h-123.9zM647.76 1344.96H488.9zM629.98 1297.76v47.18z" fill="#fff"/><path d="M629.98 1374.16v-26.67M629.98 1318.37v26.6" fill="none"/></g><use xlink:href="#F" transform="matrix(0.9999999999999999,0,0,0.9999999999999999,609.3873334417642,1287.1294353555647) translate(3.6974902343749996 17.0814892578125)"/><g stroke="#000" stroke-width=".53"><path d="M667.76 1285H481.4c-.02 0-.02 0 0 0zM667.76 1282.46H446.4zM650.07 1235.26v47.18z" fill="#fff"/><path d="M650.07 1311.66V1285M650.07 1255.87v26.6" fill="none"/></g><use xlink:href="#F" transform="matrix(0.9999999999999999,0,0,0.9999999999999999,629.2503924415546,1224.6482120709172) translate(3.6974902343749996 17.0814892578125)"/><path d="M815 1219.74v48.85zM935 1219.74v48.85z" stroke="#000" stroke-width=".53" fill="#fff"/><path d="M875 1237.52h-60M875 1237.52h60" stroke="#000" stroke-width=".53" fill="none"/><use xlink:href="#G" transform="matrix(1,0,0,1,849.44,1226.810905) translate(16.111611328125 17.0814892578125)"/><path d="M950 1219.74v48.85zM1150 1219.74v48.85z" stroke="#000" stroke-width=".53" fill="#fff"/><path d="M1050 1237.52H950M1050 1237.52h100" stroke="#000" stroke-width=".53" fill="none"/><use xlink:href="#H" transform="matrix(1,0,0,1,1024.4,1226.810905) translate(16.111611328125 17.0814892578125)"/><path d="M1165 1219.74v48.85zM1285 1219.74v48.85z" stroke="#000" stroke-width=".53" fill="#fff"/><path d="M1225 1237.52h-60M1225 1237.52h60" stroke="#000" stroke-width=".53" fill="none"/><use xlink:href="#G" transform="matrix(1,0,0,1,1199.44,1226.810905) translate(16.111611328125 17.0814892578125)"/><g stroke="#000" stroke-width=".53"><path d="M1107.76 1500h-48.85zM1107.76 1487.5h-48.85zM1119.98 1487.5H1090z" fill="#fff"/><path d="M1090 1526.66V1500M1090 1460.84v26.66" fill="none"/></g><use xlink:href="#I" transform="matrix(0.9999999999999999,0,0,0.9999999999999999,1099.3702655342704,1476.833806952024) translate(3.6974902343749996 17.0814892578125)"/><g stroke="#000" stroke-width=".53"><path d="M972.24 1432.5h68.85zM972.24 1420h68.85zM1020 1420c.02 0 .02 0 0 0h-29.98c-.02 0-.02 0 0 0z" fill="#fff"/><path d="M990 1459.16v-26.66M990 1393.34V1420" fill="none"/></g><use xlink:href="#I" transform="matrix(0.9999999999999999,0,0,0.9999999999999999,999.431787034607,1409.3200648862978) translate(3.6974902343749996 17.0814892578125)"/><g stroke="#000" stroke-width=".53"><path d="M1092.76 1364.97h-33.85zM1092.76 1342.53h-33.85zM1104.98 1342.53H1075z" fill="#fff"/><path d="M1074.98 1391.66v-26.7M1074.98 1315.84v26.7" fill="none"/></g><use xlink:href="#J" transform="matrix(0.9999999999999999,0,0,0.9999999999999999,1084.4021500072326,1331.7791593041716) translate(3.6974902343749996 17.0814892578125)"/><g stroke="#000" stroke-width=".53"><path d="M972.24 1570h68.85zM972.24 1555h68.85zM1020 1555c.02 0 .02 0 0 0h-29.98c-.02 0-.02 0 0 0z" fill="#fff"/><path d="M990 1596.66V1570M990 1528.34V1555" fill="none"/></g><use xlink:href="#C" transform="matrix(0.9999999999999999,0,0,0.9999999999999999,999.4348705238233,1544.342040886306) translate(8.6416845703125 17.0814892578125)"/><path d="M857.5 644.74v11.36zM1065 644.74v11.36z" stroke="#000" stroke-width=".53" fill="#fff"/><path d="M961.25 662.5H857.5M961.25 662.5H1065" stroke="#000" stroke-width=".53" fill="none"/><use xlink:href="#q" transform="matrix(1,0,0,1,935.7275,654.32212) translate(3.7532958984375 17.0814892578125)"/><g stroke="#000" stroke-width=".53"><path d="M903.5 840c-.02 0-.02 0 0 0h48.84zM903.5 780c-.02 0-.02 0 0 0h48.84z" fill="#fff"/><path d="M921.27 810v30M921.27 810v-30" fill="none"/></g><use xlink:href="#o" transform="matrix(0.9999999999999999,0,0,0.9999999999999999,900.6331513899387,799.2878269892585) translate(16.0558056640625 17.0814892578125)"/><g stroke="#000" stroke-width=".53"><path d="M903.5 907.5c-.02 0-.02 0 0 0h48.84zM903.5 847.5c-.02 0-.02 0 0 0h48.84z" fill="#fff"/><path d="M921.27 877.5v30M921.27 877.5v-30" fill="none"/></g><use xlink:href="#o" transform="matrix(0.9999999999999999,0,0,0.9999999999999999,900.6331513899388,866.7878269892583) translate(16.0558056640625 17.0814892578125)"/><g stroke="#000" stroke-width=".53"><path d="M903.5 772.5c-.02 0-.02 0 0 0h48.84zM903.5 712.5c-.02 0-.02 0 0 0h48.84z" fill="#fff"/><path d="M921.27 742.5v30M921.27 742.5v-30" fill="none"/></g><use xlink:href="#o" transform="matrix(0.9999999999999999,0,0,0.9999999999999999,900.6331513899388,731.7878269892585) translate(16.0558056640625 17.0814892578125)"/><path d="M722.5 637.24v18.85zM850 637.24v18.85z" stroke="#000" stroke-width=".53" fill="#fff"/><path d="M786.25 655H722.5M786.25 655H850" stroke="#000" stroke-width=".53" fill="none"/><use xlink:href="#k" transform="matrix(1,0,0,1,760.75,644.324264) translate(3.7532958984375 17.0814892578125)"/><g stroke="#000" stroke-width=".53"><path d="M728.5 907.5c-.02 0-.02 0 0 0h48.84zM728.5 712.5c-.02 0-.02 0 0 0h48.84z" fill="#fff"/><path d="M746.27 810v97.5M746.27 810v-97.5" fill="none"/></g><use xlink:href="#p" transform="matrix(0.9999999999999999,0,0,0.9999999999999999,720.6981515001349,799.317826989258) translate(8.697490234375 17.0814892578125)"/><g stroke="#000" stroke-width=".53"><path d="M1092.24 695h48.85zM1092.24 635h48.85z" fill="#fff"/><path d="M1110.02 665v30M1110.02 665v-30" fill="none"/></g><use xlink:href="#o" transform="matrix(0.9999999999999999,0,0,0.9999999999999999,1089.3831513899388,654.2878269892583) translate(16.0558056640625 17.0814892578125)"/><path d="M1072.5 752.24v18.85zM1200 752.24v18.85z" stroke="#000" stroke-width=".53" fill="#fff"/><path d="M1136.25 770h-63.75M1136.25 770H1200" stroke="#000" stroke-width=".53" fill="none"/><use xlink:href="#k" transform="matrix(1,0,0,1,1110.75,759.324264) translate(3.7532958984375 17.0814892578125)"/><path d="M152.5 934.98s0 .02.02.02h9.96s.02 0 .02-.02v-9.96s0-.02-.02-.02h-9.96s-.02 0-.02.02zM152.5 987.76V958.9zM157.52 987.76V958.9zM197.48 970h-39.94c-.02 0-.02 0 0 0z" stroke="#000" stroke-width=".53" fill="#fff"/><path d="M125.84 970h26.66M184.17 970h-26.65" stroke="#000" stroke-width=".53" fill="none"/><use xlink:href="#E" transform="matrix(1,0,0,1,176.863072,959.322335) translate(8.6416845703125 17.0814892578125)"/><g stroke="#000" stroke-width=".53"><path d="M1172.24 1285h33.84zM1172.24 1270h33.84zM1214.98 1310.02h-24.94s-.02 0-.02-.02v-24.97V1310s0 .02.02.02z" fill="#fff"/><path d="M1190.02 1311.66V1285M1190.02 1243.34V1270" fill="none"/></g><use xlink:href="#C" transform="matrix(0.9999999999999999,0,0,0.9999999999999999,1194.4255083129633,1299.3088430061507) translate(8.6416845703125 17.0814892578125)"/><g stroke="#000" stroke-width=".53"><path d="M347.76 1430.02c.02 0 .02 0 0 0H308.9zM347.76 1422.5c.02 0 .02 0 0 0H308.9zM359.98 1395h-29.96s-.02 0-.02.02v27.46-27.46s0-.02.02-.02z" fill="#fff"/><path d="M330 1456.66v-26.64M330 1395.86v26.64" fill="none"/></g><use xlink:href="#K" transform="matrix(0.9999999999999999,0,0,0.9999999999999999,339.40678121203706,1384.3176357059806) translate(3.6974902343749996 17.0814892578125)"/><g stroke="#000" stroke-width=".53"><path d="M382.75 1497.53c.02 0 .02 0 0 0H358.9zM382.75 1490.02c.02 0 .02 0 0 0H358.9zM399.98 1460h-34.95s-.02 0-.02.02V1490c0 .02 0 .02 0 0v-29.98l.03-.02z" fill="#fff"/><path d="M365 1524.16v-26.63M365 1463.34v26.68" fill="none"/></g><use xlink:href="#K" transform="matrix(0.9999999999999999,0,0,0.9999999999999999,379.3852445290416,1449.3315394645153) translate(3.6974902343749996 17.0814892578125)"/><path d="M142.5 574.74v36.35zM662.5 574.74v32.6z" stroke="#000" stroke-width=".53" fill="#fff"/><path d="M402.5 592.52h-260M402.5 592.52h260" stroke="#000" stroke-width=".53" fill="none"/><use xlink:href="#L" transform="matrix(1,0,0,1,377.02,581.817855) translate(15.611611328124999 17.0814892578125)"/><path d="M67.52 1172.23v85.06zM80.03 1172.23v118.86zM120 1171.27v18.66s0 .02-.02.02H80.05h39.93s.02 0 .02-.02z" stroke="#000" stroke-width=".53" fill="#fff"/><path d="M40.84 1189.95h26.68M106.62 1189.95h-26.6" stroke="#000" stroke-width=".53" fill="none"/><use xlink:href="#I" transform="matrix(1,0,0,1,99.41944,1160.582) translate(3.6974902343749996 17.0814892578125)"/><path d="M75 1232.22v35.1zM80.02 1232.22v58.87zM120 1230.02v19.94s0 .02-.02.02H80.04c-.02 0-.02 0 0 0h39.94s.02 0 .02-.02z" stroke="#000" stroke-width=".53" fill="#fff"/><path d="M48.34 1249.98H75M106.67 1249.98H80.02" stroke="#000" stroke-width=".53" fill="none"/><use xlink:href="#E" transform="matrix(1,0,0,1,99.36307199999999,1219.306) translate(8.6416845703125 17.0814892578125)"/><g stroke="#000" stroke-width=".53"><path d="M735.26 1282.54h-141.4zM735.26 1270h-150.1zM717.56 1222.76V1270z" fill="#fff"/><path d="M717.56 1309.16v-26.62M717.56 1243.3v26.7" fill="none"/></g><use xlink:href="#I" transform="matrix(0.9999999999999999,0,0,0.9999999999999999,696.9504697766106,1212.033677924261) translate(3.6974902343749996 17.0814892578125)"/><path d="M185 1192.48s0 .02.02.02h7.46s.02 0 .02-.02V997.52s0-.02-.02-.02h-7.46s-.02 0-.02.02z" stroke="#000" stroke-width=".53" fill="#fff"/><use xlink:href="#M" transform="matrix(-0.000003673205103813548,-0.9999999999932537,0.9999999999932537,-0.000003673205103813548,129.96115610803304,1137.4992664540116) translate(8.398515625000002 79.0814892578125)"/><use xlink:href="#c" transform="matrix(-0.000003673205103813548,-0.9999999999932537,0.9999999999932537,-0.000003673205103813548,129.96115610803304,1137.4992664540116) translate(47.943388671875006 79.0814892578125)"/><use xlink:href="#N" transform="matrix(-0.000003673205103813548,-0.9999999999932537,0.9999999999932537,-0.000003673205103813548,129.96115610803304,1137.4992664540116) translate(61.7732421875 79.0814892578125)"/><path d="M185 1199.98s0 .02.02.02h119.96s.02 0 .02-.02v-7.46s0-.02-.02-.02H185.02s-.02 0-.02.02zM180 1207.48s0 .02.02.02h509.96s.02 0 .02-.02v-7.46s0-.02-.02-.02H180.02s-.02 0-.02.02z" stroke="#000" stroke-width=".53" fill="#fff"/><g><use xlink:href="#O" transform="matrix(1,0,0,1,180,1190.003) translate(228.31263671874999 10.0814892578125)"/><use xlink:href="#c" transform="matrix(1,0,0,1,180,1190.003) translate(253.02926757812497 10.0814892578125)"/><use xlink:href="#P" transform="matrix(1,0,0,1,180,1190.003) translate(266.85912109375 10.0814892578125)"/></g><path d="M677.5 1192.48s0 .02.02.02h7.46s.02 0 .02-.02V997.52s0-.02-.02-.02h-7.46s-.02 0-.02.02zM152.5 642.24v48.84zM652.5 642.24v58.85z" stroke="#000" stroke-width=".53" fill="#fff"/><path d="M402.5 660h-250M402.5 660h250" stroke="#000" stroke-width=".53" fill="none"/><g><use xlink:href="#v" transform="matrix(1,0,0,1,377,649.347569) translate(15.611611328124999 17.0814892578125)"/></g><path d="M185 1012.24v48.85zM685 1012.24v48.85z" stroke="#000" stroke-width=".53" fill="#fff"/><path d="M435 1030.02H185M435 1030.02h250" stroke="#000" stroke-width=".53" fill="none"/><g><use xlink:href="#v" transform="matrix(1,0,0,1,409.5,1019.310905) translate(15.611611328124999 17.0814892578125)"/></g><path d="M565 1199.98s0 .02.02.02h119.96s.02 0 .02-.02v-7.46s0-.02-.02-.02H565.02s-.02 0-.02.02z" stroke="#000" stroke-width=".53" fill="#fff"/><g stroke="#000" stroke-width=".53"><path d="M132.24 1212.5h58.85zM132.24 997.5h47.6z" fill="#fff"/><path d="M150 1105v107.5M150 1105V997.5" fill="none"/></g><g><use xlink:href="#l" transform="matrix(0.9999999999999999,0,0,0.9999999999999999,124.4214780001686,1094.3411828063327) translate(8.697490234375 17.0814892578125)"/></g><g stroke="#000" stroke-width=".53"><path d="M897.25 1570h18.84zM897.25 1557.53h18.84zM890.02 1530h24.95s.02 0 .02.02v27.5-27.5l-.03-.02z" fill="#fff"/><path d="M915 1596.66V1570M915 1530.87v26.66" fill="none"/></g><g><use xlink:href="#I" transform="matrix(0.9999999999999999,0,0,0.9999999999999999,869.3906720295304,1519.3336102422957) translate(3.6974902343749996 17.0814892578125)"/></g><path d="M505.26 1557.5h2.63m2.62 0h5.26m2.63 0h5.27m2.63 0h5.26m2.63 0h5.25m2.63 0h5.26m2.63 0h5.26m2.63 0h5.26m2.63 0H571m2.64 0h5.26m2.63 0h5.26m2.62 0h5.26m2.63 0h5.27m2.63 0h5.26m2.63 0h5.25m2.63 0h5.26m2.63 0h5.26m2.62 0H642m2.64 0h5.26m2.63 0h5.26m2.62 0h5.26m2.63 0h5.27m2.63 0h5.26m2.63 0h5.25m2.63 0h5.26m2.63 0h5.26m2.63 0h5.26m2.63 0h5.26m2.64 0h5.26m2.63 0h5.26m2.62 0h5.26m2.63 0h5.27m2.63 0h5.26m2.63 0h5.24m2.63 0h5.26m2.63 0h5.26m2.63 0h5.26m2.64 0h5.26m2.63 0h5.26m2.62 0h5.26m2.63 0h5.27m2.63 0h5.26m2.63 0h5.25m2.63 0h5.26m2.63 0h5.26m2.63 0h5.26m2.63 0h5.26m2.64 0h5.26m2.63 0h5.26m2.62 0h5.26m2.63 0h2.63" stroke="#000" stroke-width=".53" fill="none"/><path d="M505.27 1557.76H505"/><path d="M899.73 1557.5h.27M585.26 1562.5h2.66m2.66 0h5.32m2.66 0h5.32m2.66 0h5.32m2.66 0h5.32m2.66 0h5.3m2.67 0h5.32m2.65 0h5.32m2.66 0h5.32m2.66 0h5.33m2.65 0h5.32m2.66 0h5.32m2.66 0h5.32m2.66 0h5.32m2.66 0h5.3m2.67 0h5.32m2.65 0h5.32m2.66 0h5.32m2.66 0h5.33m2.66 0h5.3m2.66 0h5.32m2.66 0h5.32m2.66 0h5.32m2.66 0h5.32m2.65 0h5.32m2.65 0h5.32m2.66 0h5.32m2.66 0h5.33m2.66 0h5.3m2.66 0h5.32m2.66 0h5.32m2.66 0h5.32m2.66 0h5.32m2.66 0h5.3m2.67 0h5.32m2.66 0h5.32m2.66 0h5.33m2.66 0h5.3m2.66 0h5.32m2.66 0h2.66" stroke="#000" stroke-width=".53" fill="none"/><path d="M585.27 1562.77v-.5l-.27-.02v-.02h.27"/><path d="M896.4 1562.5h.27" stroke="#000" stroke-width=".53" fill="none"/><g stroke="#000" stroke-width=".53"><path d="M479.73 917.52h28.86zM479.73 919.98h28.86zM467.52 946.27h29.97V920v26.27z" fill="#fff"/><path d="M497.5 946.66v-26.68M497.5 890.84v26.68" fill="none"/></g><g><use xlink:href="#F" transform="matrix(0.9999999999999999,0,0,0.9999999999999999,446.885101070345,935.5971470033192) translate(3.6974902343749996 17.0814892578125)"/></g><g stroke="#000" stroke-width=".53"><path d="M559 920c.02 0 .02 0 0 0h-40.1zM523.5 620h43.84z" fill="#fff"/><path d="M541.23 770v150M541.23 770V620" fill="none"/></g><g><use xlink:href="#Q" transform="matrix(0.9999999999999999,0,0,0.9999999999999999,515.7345919998946,759.3361026627671) translate(16.111611328125 17.0814892578125)"/></g><path d="M145 959.98s0 .02.02.02h7.46s.02 0 .02-.02v-49.96s0-.02-.02-.02h-7.46s-.02 0-.02.02z" stroke="#000" stroke-width=".53" fill="#fff"/><defs><path d="M720-1253V0H530v-1253H46v-156h1158v156H720" id="R"/><path d="M571-1102c350 0 480 196 482 560 2 357-151 562-488 562C233 20 86-198 86-542c0-373 162-560 485-560zm-8 989c244 0 301-164 301-429 0-266-49-427-290-427-239 0-299 165-299 427 0 252 61 429 288 429" id="S"/><path d="M320-908c63-128 152-193 335-193 133 0 233 45 299 134s99 230 99 421c0 377-133 566-398 566-167 0-279-63-336-188h-5c8 141 2 428 4 593H138V-861c0-111-2-185-6-221h174c5 33 9 134 10 174h4zm-2 380c0 254 57 415 289 415 89 0 149-37 195-99 76-105 79-547 1-653-45-62-105-97-194-97-243 1-291 184-291 434" id="T"/><g id="a"><use transform="matrix(0.008681640625,0,0,0.008681640625,0,0)" xlink:href="#R"/><use transform="matrix(0.008681640625,0,0,0.008681640625,8.89,0)" xlink:href="#S"/><use transform="matrix(0.008681640625,0,0,0.008681640625,18.778388671875,0)" xlink:href="#T"/></g><path d="M496 424C268 175 127-92 127-532c0-438 143-704 369-952h174c-222 249-362 524-362 954 0 431 138 703 362 954H496" id="U"/><path d="M598-899c268 0 455 178 455 440 0 299-196 479-500 479C293 20 124-98 82-315l182-21c38 139 136 209 293 209 195 0 309-130 309-328 0-177-124-301-305-297-120 3-189 38-262 101H123l47-758h801v153H334l-27 447c78-60 175-90 291-90" id="V"/><path d="M572-1430c269 0 442 128 442 386 0 144-72 232-149 325-108 130-487 366-564 566h735V0H103v-127c119-285 378-432 583-627 76-72 141-150 143-284 1-156-100-244-257-244-156 0-263 93-277 238l-184-17c24-224 208-369 461-369" id="W"/><path d="M493 0H345l881-1409h145zM56-563v-107h211v-620L65-1152v-120l210-137h123v739h215v107H56zm1308-297c159 0 277 80 276 233 0 98-63 193-188 285-81 60-139 105-172 136s-57 61-70 91h443V-2h-600l-2-103c59-119 148-190 267-274 65-45 110-88 141-124 82-94 46-251-101-251-93 0-155 54-164 141l-133-8c16-144 137-239 303-239" id="X"/><g id="b"><use transform="matrix(0.008681640625,0,0,0.008681640625,0,0)" xlink:href="#U"/><use transform="matrix(0.008681640625,0,0,0.008681640625,5.9208789062500005,0)" xlink:href="#V"/><use transform="matrix(0.008681640625,0,0,0.008681640625,15.809267578125002,0)" xlink:href="#W"/><use transform="matrix(0.008681640625,0,0,0.008681640625,25.69765625,0)" xlink:href="#X"/></g><path d="M801 0L510-444 217 0H23l385-556-367-526h199l270 421 268-421h201L612-558 1002 0H801" id="Y"/><use transform="matrix(0.008681640625,0,0,0.008681640625,0,0)" xlink:href="#Y" id="c"/><path d="M156 0v-153h359v-1084l-318 227v-170l333-229h166v1256h343V0H156" id="Z"/><path d="M186-1484c228 249 369 516 369 956 0 438-143 704-369 952H12C235 172 374-97 374-530c0-431-140-704-362-954h174" id="aa"/><g id="d"><use transform="matrix(0.008681640625,0,0,0.008681640625,0,0)" xlink:href="#W"/><use transform="matrix(0.008681640625,0,0,0.008681640625,9.888388671875001,0)" xlink:href="#Z"/><use transform="matrix(0.008681640625,0,0,0.008681640625,19.776777343750002,0)" xlink:href="#X"/><use transform="matrix(0.008681640625,0,0,0.008681640625,34.60501953125,0)" xlink:href="#aa"/></g><path d="M1059-705c0 235-42 415-125 539S729 20 567 20 283-42 202-165 80-468 80-705c0-242 39-423 118-544s204-181 375-181c166 0 288 61 367 183s119 303 119 542zM802-269c94-156 93-724 4-878-51-89-125-137-233-137-111 0-186 48-239 135-91 149-91 731 2 883 55 89 126 139 233 139 106 0 178-51 233-142" id="ab"/><g id="e"><use transform="matrix(0.008681640625,0,0,0.008681640625,0,0)" xlink:href="#U"/><use transform="matrix(0.008681640625,0,0,0.008681640625,5.9208789062500005,0)" xlink:href="#V"/><use transform="matrix(0.008681640625,0,0,0.008681640625,15.809267578125002,0)" xlink:href="#ab"/></g><path d="M96-956c0-291 177-474 469-474 157 0 275 58 356 174s121 290 121 523c0 242-44 428-132 558S695 20 532 20c-237 0-353-99-407-294l172-27c36 117 115 176 238 176 103 0 183-48 240-144s86-233 89-411c-46 113-193 199-350 199-261 0-418-205-418-475zm461 333c171-3 285-111 289-284 4-204-98-376-287-377-181-1-280 140-280 328 0 190 98 336 278 333" id="ac"/><g id="f"><use transform="matrix(0.008681640625,0,0,0.008681640625,0,0)" xlink:href="#Z"/><use transform="matrix(0.008681640625,0,0,0.008681640625,9.888388671875001,0)" xlink:href="#ac"/><use transform="matrix(0.008681640625,0,0,0.008681640625,19.776777343750002,0)" xlink:href="#X"/><use transform="matrix(0.008681640625,0,0,0.008681640625,34.60501953125,0)" xlink:href="#aa"/></g><path d="M1207-1021c-59-155-207-253-415-253-322-2-494 232-494 563 0 326 186 574 502 574 197 0 346-98 445-293l156 78C1298-131 1096 20 791 20c-448 0-682-279-687-731-5-437 254-721 686-719 309 2 507 125 598 349" id="ad"/><path d="M797-207C713-60 620 16 414 20 203 24 88-98 87-302c0-112 37-198 111-258s192-93 356-96l243-4c10-201-43-307-232-305-154 2-223 43-242 172l-188-17c31-195 175-292 434-292s410 116 410 364v466c3 95 12 159 101 161 17 0 37-2 59-7V-6c-45 11-92 16-139 16-143-2-188-76-197-217h-6zm-525-92c-1 116 66 187 183 184 230-7 361-164 342-419-124 5-305-2-389 30-83 32-136 92-136 205" id="ae"/><path d="M513-963c-139 1-238 29-238 149 0 72 41 100 95 127 55 27 348 94 404 125 101 56 176 118 176 263C950-73 758 21 511 20 254 19 107-55 57-254l159-31c34 123 133 168 295 168 156 0 264-34 264-168 0-156-183-165-315-204-171-51-245-68-323-172-26-35-37-82-37-135 0-220 172-304 413-303 232 1 379 74 418 265l-162 20c-23-104-122-150-256-149" id="af"/><path d="M87-548c0-338 159-553 484-554 325-2 484 204 477 599H276c-1 227 88 385 302 388 146 2 246-65 283-166l158 45C954-65 807 20 578 20 240 20 87-193 87-548zm775-93c-19-206-90-328-294-328-185 0-285 140-290 328h584" id="ag"/><g id="g"><use transform="matrix(0.008681640625,0,0,0.008681640625,0,0)" xlink:href="#ad"/><use transform="matrix(0.008681640625,0,0,0.008681640625,12.840146484375001,0)" xlink:href="#ae"/><use transform="matrix(0.008681640625,0,0,0.008681640625,22.728535156250004,0)" xlink:href="#af"/><use transform="matrix(0.008681640625,0,0,0.008681640625,31.618535156250005,0)" xlink:href="#ag"/></g><path d="M137-1312v-172h180v172H137zM137 0v-1082h180V0H137" id="ah"/><path d="M835 0c-5-29-11-137-10-174h-4C759-45 663 20 484 20 177 20 86-201 86-536c0-377 133-566 398-566 178 1 273 67 339 188-4-187-1-380-2-570h180v1261c0 113 2 187 6 223H835zm-14-554c0-255-58-415-289-415-91 0-151 37-196 101-76 109-77 543-1 651 44 63 105 98 195 98 235 0 291-173 291-435" id="ai"/><g id="h"><use transform="matrix(0.008681640625,0,0,0.008681640625,0,0)" xlink:href="#af"/><use transform="matrix(0.008681640625,0,0,0.008681640625,8.89,0)" xlink:href="#ah"/><use transform="matrix(0.008681640625,0,0,0.008681640625,12.840146484375001,0)" xlink:href="#ai"/><use transform="matrix(0.008681640625,0,0,0.008681640625,22.728535156250004,0)" xlink:href="#ag"/></g><path d="M715-719c191 17 334 134 334 330 0 274-191 409-478 409-283 0-463-130-493-382l186-17c24 167 126 250 307 250 177 0 294-88 291-266-3-174-149-246-344-244H416v-156h98c179 2 311-77 311-243 0-157-98-244-264-244-159 0-264 88-278 233l-181-14c23-229 206-367 461-367 262 0 447 124 447 373 0 197-120 298-295 334v4" id="aj"/><g id="i"><use transform="matrix(0.008681640625,0,0,0.008681640625,0,0)" xlink:href="#U"/><use transform="matrix(0.008681640625,0,0,0.008681640625,5.9208789062500005,0)" xlink:href="#aj"/><use transform="matrix(0.008681640625,0,0,0.008681640625,15.809267578125002,0)" xlink:href="#Z"/></g><g id="j"><use transform="matrix(0.008681640625,0,0,0.008681640625,0,0)" xlink:href="#Z"/><use transform="matrix(0.008681640625,0,0,0.008681640625,9.888388671875001,0)" xlink:href="#ac"/><use transform="matrix(0.008681640625,0,0,0.008681640625,19.776777343750002,0)" xlink:href="#X"/><use transform="matrix(0.008681640625,0,0,0.008681640625,34.60501953125,0)" xlink:href="#aa"/></g><path d="M187 0v-219h195V0H187" id="ak"/><path d="M1036-1263c-144 220-246 392-305 517C626-522 556-302 553 0H365c0-180 39-369 115-568s203-429 382-688H105v-153h931v146" id="al"/><g id="k"><use transform="matrix(0.008681640625,0,0,0.008681640625,0,0)" xlink:href="#Z"/><use transform="matrix(0.008681640625,0,0,0.008681640625,9.888388671875001,0)" xlink:href="#W"/><use transform="matrix(0.008681640625,0,0,0.008681640625,19.776777343750002,0)" xlink:href="#ak"/><use transform="matrix(0.008681640625,0,0,0.008681640625,24.716630859375,0)" xlink:href="#al"/><use transform="matrix(0.008681640625,0,0,0.008681640625,34.60501953125,0)" xlink:href="#V"/></g><g id="l"><use transform="matrix(0.008681640625,0,0,0.008681640625,0,0)" xlink:href="#W"/><use transform="matrix(0.008681640625,0,0,0.008681640625,9.888388671875001,0)" xlink:href="#Z"/><use transform="matrix(0.008681640625,0,0,0.008681640625,19.776777343750002,0)" xlink:href="#ak"/><use transform="matrix(0.008681640625,0,0,0.008681640625,24.716630859375,0)" xlink:href="#V"/></g><g id="m"><use transform="matrix(0.008681640625,0,0,0.008681640625,0,0)" xlink:href="#Z"/><use transform="matrix(0.008681640625,0,0,0.008681640625,9.888388671875001,0)" xlink:href="#X"/></g><g id="n"><use transform="matrix(0.008681640625,0,0,0.008681640625,0,0)" xlink:href="#aj"/><use transform="matrix(0.008681640625,0,0,0.008681640625,9.888388671875001,0)" xlink:href="#ab"/></g><path d="M625-911c261-2 424 185 424 450 0 289-169 481-455 481-159 0-280-59-364-177S104-447 104-672c0-244 44-431 131-562s212-196 373-196c213 0 347 96 402 287l-172 31c-35-115-113-172-232-172-103 0-182 48-238 144s-85 234-85 415c59-113 178-184 342-186zm-37 786c182 0 278-138 278-328 0-193-98-318-284-319-166-1-281 107-281 276 0 195 106 371 287 371" id="am"/><use transform="matrix(0.008681640625,0,0,0.008681640625,0,0)" xlink:href="#am" id="o"/><g id="p"><use transform="matrix(0.008681640625,0,0,0.008681640625,0,0)" xlink:href="#Z"/><use transform="matrix(0.008681640625,0,0,0.008681640625,9.888388671875001,0)" xlink:href="#ac"/><use transform="matrix(0.008681640625,0,0,0.008681640625,19.776777343750002,0)" xlink:href="#ak"/><use transform="matrix(0.008681640625,0,0,0.008681640625,24.716630859375,0)" xlink:href="#V"/></g><g id="q"><use transform="matrix(0.008681640625,0,0,0.008681640625,0,0)" xlink:href="#W"/><use transform="matrix(0.008681640625,0,0,0.008681640625,9.888388671875001,0)" xlink:href="#ab"/><use transform="matrix(0.008681640625,0,0,0.008681640625,19.776777343750002,0)" xlink:href="#ak"/><use transform="matrix(0.008681640625,0,0,0.008681640625,24.716630859375,0)" xlink:href="#al"/><use transform="matrix(0.008681640625,0,0,0.008681640625,34.60501953125,0)" xlink:href="#V"/></g><g id="r"><use transform="matrix(0.008681640625,0,0,0.008681640625,0,0)" xlink:href="#R"/><use transform="matrix(0.008681640625,0,0,0.008681640625,8.89,0)" xlink:href="#S"/><use transform="matrix(0.008681640625,0,0,0.008681640625,18.778388671875,0)" xlink:href="#T"/></g><path d="M336-268c2 98 22 139 114 141 24 0 59-5 104-14V-8C495 8 434 16 372 16c-144 0-216-82-216-245v-722H31v-131h132l53-242h120v242h200v131H336v683" id="an"/><path d="M318-861c55-157 83-241 257-241 24 0 48 3 73 10v165c-24-7-56-10-96-10-75 0-132 33-171 97s-59 156-59 276V0H142c-3-364 6-725-6-1082h170c5 123 8 196 8 221h4" id="ao"/><path d="M1195-963c-175 0-249 144-249 336V0H768v-686c-5-190-26-277-198-277-171 0-249 147-249 336V0H142c-3-345 6-754-6-1082h170c5 68 6 94 8 185h3c69-134 140-205 316-205 171 0 257 66 294 205h3c67-129 152-205 328-205 238 0 313 127 313 381V0h-178v-686c-5-190-26-277-198-277" id="ap"/><g id="s"><use transform="matrix(0.008681640625,0,0,0.008681640625,0,0)" xlink:href="#an"/><use transform="matrix(0.008681640625,0,0,0.008681640625,4.939853515625001,0)" xlink:href="#ao"/><use transform="matrix(0.008681640625,0,0,0.008681640625,10.860732421875001,0)" xlink:href="#ah"/><use transform="matrix(0.008681640625,0,0,0.008681640625,14.81087890625,0)" xlink:href="#ap"/></g><g id="t"><use transform="matrix(0.008681640625,0,0,0.008681640625,0,0)" xlink:href="#U"/><use transform="matrix(0.008681640625,0,0,0.008681640625,5.9208789062500005,0)" xlink:href="#V"/><use transform="matrix(0.008681640625,0,0,0.008681640625,15.809267578125002,0)" xlink:href="#Z"/></g><path d="M493 0H345l881-1409h145zM56-563v-107h211v-620L65-1152v-120l210-137h123v739h215v107H56zm1447 383V-2h-131v-178H966v-111l386-557h151v555h111v113h-111zm-129-535c-72 130-195 295-281 422h279c1-140-2-285 2-422" id="aq"/><g id="u"><use transform="matrix(0.008681640625,0,0,0.008681640625,0,0)" xlink:href="#Z"/><use transform="matrix(0.008681640625,0,0,0.008681640625,9.888388671875001,0)" xlink:href="#aq"/><use transform="matrix(0.008681640625,0,0,0.008681640625,24.716630859375,0)" xlink:href="#aa"/></g><g id="v"><use transform="matrix(0.008681640625,0,0,0.008681640625,0,0)" xlink:href="#V"/><use transform="matrix(0.008681640625,0,0,0.008681640625,9.888388671875001,0)" xlink:href="#ab"/></g><g id="w"><use transform="matrix(0.008681640625,0,0,0.008681640625,0,0)" xlink:href="#W"/><use transform="matrix(0.008681640625,0,0,0.008681640625,9.888388671875001,0)" xlink:href="#ac"/><use transform="matrix(0.008681640625,0,0,0.008681640625,19.776777343750002,0)" xlink:href="#ak"/><use transform="matrix(0.008681640625,0,0,0.008681640625,24.716630859375,0)" xlink:href="#W"/><use transform="matrix(0.008681640625,0,0,0.008681640625,34.60501953125,0)" xlink:href="#V"/></g><use transform="matrix(0.008681640625,0,0,0.008681640625,0,0)" xlink:href="#V" id="x"/><path d="M1366 0c4-412-9-843 9-1240-33 119-62 213-88 280L923 0H789L420-960c-31-92-62-184-89-280 13 403 5 827 7 1240H168v-1409h251l375 977c20 57 51 168 63 224 5-34 58-197 68-224l368-977h245V0h-172" id="ar"/><path d="M138 0v-1484h180V0H138" id="as"/><g id="y"><use transform="matrix(0.008681640625,0,0,0.008681640625,0,0)" xlink:href="#ar"/><use transform="matrix(0.008681640625,0,0,0.008681640625,14.81087890625,0)" xlink:href="#ah"/><use transform="matrix(0.008681640625,0,0,0.008681640625,18.761025390625,0)" xlink:href="#ai"/><use transform="matrix(0.008681640625,0,0,0.008681640625,28.649414062500004,0)" xlink:href="#ai"/><use transform="matrix(0.008681640625,0,0,0.008681640625,38.537802734375,0)" xlink:href="#as"/><use transform="matrix(0.008681640625,0,0,0.008681640625,42.487949218749996,0)" xlink:href="#ag"/></g><path d="M908-743c202 21 350 139 350 346 0 273-224 397-518 397H168v-1409h512c331 0 496 114 496 342 0 180-112 291-268 324zm-228-67c187 0 301-60 304-234 6-277-360-200-625-212v446h321zm50 657c212 0 335-66 335-259 0-166-117-249-350-249H359v508h371" id="at"/><g id="z"><use transform="matrix(0.008681640625,0,0,0.008681640625,0,0)" xlink:href="#at"/><use transform="matrix(0.008681640625,0,0,0.008681640625,11.859121093750002,0)" xlink:href="#S"/><use transform="matrix(0.008681640625,0,0,0.008681640625,21.747509765625004,0)" xlink:href="#an"/><use transform="matrix(0.008681640625,0,0,0.008681640625,26.687363281250004,0)" xlink:href="#an"/><use transform="matrix(0.008681640625,0,0,0.008681640625,31.627216796875,0)" xlink:href="#S"/><use transform="matrix(0.008681640625,0,0,0.008681640625,41.51560546875,0)" xlink:href="#ap"/></g><g id="A"><use transform="matrix(0.008681640625,0,0,0.008681640625,0,0)" xlink:href="#V"/><use transform="matrix(0.008681640625,0,0,0.008681640625,9.888388671875001,0)" xlink:href="#aa"/></g><g id="B"><use transform="matrix(0.008681640625,0,0,0.008681640625,0,0)" xlink:href="#W"/><use transform="matrix(0.008681640625,0,0,0.008681640625,9.888388671875001,0)" xlink:href="#ac"/></g><g id="C"><use transform="matrix(0.008681640625,0,0,0.008681640625,0,0)" xlink:href="#Z"/><use transform="matrix(0.008681640625,0,0,0.008681640625,9.888388671875001,0)" xlink:href="#ak"/><use transform="matrix(0.008681640625,0,0,0.008681640625,14.828242187500003,0)" xlink:href="#V"/></g><path d="M765-739c171 25 285 155 285 346-1 274-191 413-480 413C286 20 89-117 89-391c0-183 123-323 281-346v-4c-143-30-248-160-248-328 1-229 198-361 444-361 254 0 448 125 449 363 1 166-104 300-250 324v4zm-197-70c171-2 261-74 260-248 0-159-87-239-262-239-165 0-260 77-260 239 0 163 99 249 262 248zm4 694c200 0 291-92 291-295 1-179-116-264-297-264-175 0-292 98-291 268 0 194 99 291 297 291" id="au"/><g id="D"><use transform="matrix(0.008681640625,0,0,0.008681640625,0,0)" xlink:href="#W"/><use transform="matrix(0.008681640625,0,0,0.008681640625,9.888388671875001,0)" xlink:href="#au"/><use transform="matrix(0.008681640625,0,0,0.008681640625,19.776777343750002,0)" xlink:href="#ak"/><use transform="matrix(0.008681640625,0,0,0.008681640625,24.716630859375,0)" xlink:href="#V"/></g><g id="E"><use transform="matrix(0.008681640625,0,0,0.008681640625,0,0)" xlink:href="#ab"/><use transform="matrix(0.008681640625,0,0,0.008681640625,9.888388671875001,0)" xlink:href="#ak"/><use transform="matrix(0.008681640625,0,0,0.008681640625,14.828242187500003,0)" xlink:href="#V"/></g><g id="F"><use transform="matrix(0.008681640625,0,0,0.008681640625,0,0)" xlink:href="#ab"/><use transform="matrix(0.008681640625,0,0,0.008681640625,9.888388671875001,0)" xlink:href="#ak"/><use transform="matrix(0.008681640625,0,0,0.008681640625,14.828242187500003,0)" xlink:href="#W"/><use transform="matrix(0.008681640625,0,0,0.008681640625,24.716630859375,0)" xlink:href="#V"/></g><g id="G"><use transform="matrix(0.008681640625,0,0,0.008681640625,0,0)" xlink:href="#Z"/><use transform="matrix(0.008681640625,0,0,0.008681640625,9.888388671875001,0)" xlink:href="#W"/></g><g id="H"><use transform="matrix(0.008681640625,0,0,0.008681640625,0,0)" xlink:href="#W"/><use transform="matrix(0.008681640625,0,0,0.008681640625,9.888388671875001,0)" xlink:href="#ab"/></g><g id="I"><use transform="matrix(0.008681640625,0,0,0.008681640625,0,0)" xlink:href="#Z"/><use transform="matrix(0.008681640625,0,0,0.008681640625,9.888388671875001,0)" xlink:href="#ak"/><use transform="matrix(0.008681640625,0,0,0.008681640625,14.828242187500003,0)" xlink:href="#W"/><use transform="matrix(0.008681640625,0,0,0.008681640625,24.716630859375,0)" xlink:href="#V"/></g><g id="J"><use transform="matrix(0.008681640625,0,0,0.008681640625,0,0)" xlink:href="#W"/><use transform="matrix(0.008681640625,0,0,0.008681640625,9.888388671875001,0)" xlink:href="#ak"/><use transform="matrix(0.008681640625,0,0,0.008681640625,14.828242187500003,0)" xlink:href="#W"/><use transform="matrix(0.008681640625,0,0,0.008681640625,24.716630859375,0)" xlink:href="#V"/></g><g id="K"><use transform="matrix(0.008681640625,0,0,0.008681640625,0,0)" xlink:href="#ab"/><use transform="matrix(0.008681640625,0,0,0.008681640625,9.888388671875001,0)" xlink:href="#ak"/><use transform="matrix(0.008681640625,0,0,0.008681640625,14.828242187500003,0)" xlink:href="#al"/><use transform="matrix(0.008681640625,0,0,0.008681640625,24.716630859375,0)" xlink:href="#V"/></g><g id="L"><use transform="matrix(0.008681640625,0,0,0.008681640625,0,0)" xlink:href="#V"/><use transform="matrix(0.008681640625,0,0,0.008681640625,9.888388671875001,0)" xlink:href="#W"/></g><g id="M"><use transform="matrix(0.008681640625,0,0,0.008681640625,0,0)" xlink:href="#Z"/><use transform="matrix(0.008681640625,0,0,0.008681640625,9.888388671875001,0)" xlink:href="#ac"/><use transform="matrix(0.008681640625,0,0,0.008681640625,19.776777343750002,0)" xlink:href="#X"/></g><path d="M513 0H365l881-1409h145zm990-180V-2h-131v-178H966v-111l386-557h151v555h111v113h-111zm-129-535c-72 130-195 295-281 422h279c1-140-2-285 2-422zM491-997c114 10 198 80 197 202-1 165-122 244-297 244-191 0-297-76-318-227l136-13c12 91 73 136 182 136 107 0 160-49 160-148 0-111-107-147-250-137v-109c126 10 228-24 229-137 0-84-56-129-145-129-91 0-151 50-158 135l-135-12c16-146 132-229 297-229 156 0 278 74 278 217 0 116-73 182-176 207" id="av"/><use transform="matrix(0.008681640625,0,0,0.008681640625,0,0)" xlink:href="#av" id="N"/><g id="O"><use transform="matrix(0.008681640625,0,0,0.008681640625,0,0)" xlink:href="#V"/><use transform="matrix(0.008681640625,0,0,0.008681640625,9.888388671875001,0)" xlink:href="#Z"/></g><use transform="matrix(0.008681640625,0,0,0.008681640625,0,0)" xlink:href="#av" id="P"/><g id="Q"><use transform="matrix(0.008681640625,0,0,0.008681640625,0,0)" xlink:href="#aj"/><use transform="matrix(0.008681640625,0,0,0.008681640625,9.888388671875001,0)" xlink:href="#ab"/></g></defs></g></svg>